<mxfile host="app.diagrams.net" agent="Mozilla/5.0 (Windows NT 10.0; Win64; x64) AppleWebKit/537.36 (KHTML, like Gecko) Chrome/134.0.0.0 Safari/537.36 Edg/134.0.0.0" version="26.1.0">
  <diagram name="第 1 页" id="8_V_LOWjS_oP-QzArkqd">
    <mxGraphModel dx="1266" dy="925" grid="0" gridSize="10" guides="1" tooltips="1" connect="1" arrows="1" fold="1" page="0" pageScale="1" pageWidth="827" pageHeight="1169" background="none" math="0" shadow="0">
      <root>
        <mxCell id="0" />
        <mxCell id="1" parent="0" />
        <mxCell id="gmB4WwqZMORq6ps0vpDz-127" value="" style="rounded=1;whiteSpace=wrap;html=1;dashed=1;" vertex="1" parent="1">
          <mxGeometry x="-43" y="-57" width="848" height="385" as="geometry" />
        </mxCell>
        <mxCell id="gmB4WwqZMORq6ps0vpDz-8" value="" style="shape=image;verticalLabelPosition=bottom;labelBackgroundColor=default;verticalAlign=top;aspect=fixed;imageAspect=0;image=data:image/jpeg,/9j/4AAQSkZJRgABAQAAAQABAAD/2wBDAAIBAQEBAQIBAQECAgICAgQDAgICAgUEBAMEBgUGBgYFBgYGBwkIBgcJBwYGCAsICQoKCgoKBggLDAsKDAkKCgr/2wBDAQICAgICAgUDAwUKBwYHCgoKCgoKCgoKCgoKCgoKCgoKCgoKCgoKCgoKCgoKCgoKCgoKCgoKCgoKCgoKCgoKCgr/wAARCADgAOADASIAAhEBAxEB/8QAHwAAAQUBAQEBAQEAAAAAAAAAAAECAwQFBgcICQoL/8QAtRAAAgEDAwIEAwUFBAQAAAF9AQIDAAQRBRIhMUEGE1FhByJxFDKBkaEII0KxwRVS0fAkM2JyggkKFhcYGRolJicoKSo0NTY3ODk6Q0RFRkdISUpTVFVWV1hZWmNkZWZnaGlqc3R1dnd4eXqDhIWGh4iJipKTlJWWl5iZmqKjpKWmp6ipqrKztLW2t7i5usLDxMXGx8jJytLT1NXW19jZ2uHi4+Tl5ufo6erx8vP09fb3+Pn6/8QAHwEAAwEBAQEBAQEBAQAAAAAAAAECAwQFBgcICQoL/8QAtREAAgECBAQDBAcFBAQAAQJ3AAECAxEEBSExBhJBUQdhcRMiMoEIFEKRobHBCSMzUvAVYnLRChYkNOEl8RcYGRomJygpKjU2Nzg5OkNERUZHSElKU1RVVldYWVpjZGVmZ2hpanN0dXZ3eHl6goOEhYaHiImKkpOUlZaXmJmaoqOkpaanqKmqsrO0tba3uLm6wsPExcbHyMnK0tPU1dbX2Nna4uPk5ebn6Onq8vP09fb3+Pn6/9oADAMBAAIRAxEAPwD+f+iiigAooooAKKKKACin29vPdzpa2sDyyyMFjjjUszMeAAB1NfTX7PX/AATE+LXxOji8R/FK5bwlpBAb7PNDvv5l64ERwIvq/wAw/uGsa+Io4aHNUlZG+HwtfFT5aUbs+Y443lcRxIWZjhVUZJNeufDL9hr9pT4oWo1aw8AS6Tpu3c2pa+/2SML/AHgrDzGGO6oRX6GfBv8AZL+BHwCjhuPA/ge3kv0HOtagBPdsfUOw+T6RhR7V3mupJq9/B4cjbKyusl4c/diHOD7kgD868Cvn95Wox07v/L/gn1GD4YUrPES+S/z/AOAfHXwp/wCCRGn6jp8Or/FL4q3J8xdz2Oh2ax4HqJpd2c/9cxXs3hv/AIJwfsh+F0UJ4Fn1SdMDz9W1KaUk/wC4rLH/AOO17xHaz2xCJ8qk8cdBRFosqM00f97kMenfNeHXzjGVXd1Gl5afkfQ0sny2hH3KSfrr+Z5/4f8A2c/gR4YCw6V8E/CkLAcSroMBc+mWKZ/Wuoj+Gfha1CmHwZpUMXG1FsIwuO3RcVu29usg80jcV7Y4z61Le3N3K0dqieZMeVj6YHqT2H864XiqtSW9/mdawdJaQijnPEPgLwRa2iC88I6VI0oxHafYImL9e2P1rltQ/Zx+Buv2jT+Kfgp4WnklfBdtCgyo9AwTI+oNemr4blaYTmPzJz99gMH6D0FZ/iOeDS5EttSdYhglY1G527DAHWqp4ipooSdxvCQjo43+R4N4x/4J2fsmeK1YwfDqXSrhzzPpOpTR4+iMzIP++a8R+KP/AASo8O2Uhj+FnxXvDdN9zTtYsll49WmiK7f++DX2g2la9rjl4i9lbDGN2PNcHv8A7P8AOnQeDksGKQxFQ/JdjlmPqSeTXpUczxVB61G/J6/meVicpwNT46aTfbT8j8tfif8AsQftIfCyOS91TwHJqdlH96+0J/tSAdyVX94o9yoFeTSRvE5jkQqynDKwwQfSv2lfS0GfOjAYNgYTr71wHxj/AGTPgX8eYXk8beBrZNQZMHWNPAgulPrvUfPj0cMOelerh+IE3atH5r/L/gnz9fh5tv2Mvk/8z8mKK+mP2gP+CaXxQ+G4uNf+Fl4fFOlRksbWOMJfwr7xjiX6p8x/uCvmq5trizuJLS7geKWJyksUilWRgcEEHkEHtX0FDEUcTDmpyufP4jC18LPlqxsxlFFFbGAUUUUAFFFFABRRRQAUUUUAFd98AP2bfij+0f4o/wCEd+HujZhiYf2hqtzlLazU93fHX0QZY9hgEjtf2PP2JvGP7TGsJr+qrPpfhG1uNt5qm3D3RH3ooMjDN6vyq55ycKf0p+G3wx8HfCjwra+DfAnh2HTNMtB+7gt1OSe7sx5dz3Ykk9zXjZlm0MGuSGs/y/rse9lWS1Ma1Uq6Q/F+nl5/ced/sw/sP/CX9m+0i1Oy04az4mK4l8QahCpZTjlYUyRCp5GRlueWI4r2a0S3OWEuxiST5mQDnt6HjHSnLNGQfl2lV+UHOcnpWraaSshDRldpTbjNfE4rGVKsnOo7tn32HwlHD01TpxSSM+e0jjhAePEajcxzxj1zUfg7w59sspvE0nMt9MWhHcKOE/IDNSeKNHuLaWx0ayuGA1SXZJH/ANMwMsQccZHFdhomlWsqpbqnlRxLsjSJeAAMf4D/APXXDUryhSunv+S/4P5HpU6MWrNmTNYrGAkitJISSSBx9M1ZstB+2xmKRAqleRjr/jXVaR4U+0SZezdySDGg9O1Tz6YNMmjE9gJ7l2xDZRkEkep54H1rheI6dTP2TlPlgjiE0YaddCxtWEkkuTmQYCDnmtrS/CVrbqDYkybj88zDmRu/uetHjLSrzw7ONX1G8s1muE4tDuLMc9EUAk9unHFUy/jq7so0k0We2tnQmWGFxG8g7Anqo9QMGtuac4KSfzOhYaWiTVirrN239o/2L4ZkWS4Rj512y/JD/ifaqP8AwjFnphE1urzXDf6+6lBLue/zHoK6AX9nbaZHb2vhWeALg+WkQwT9d3NRXOpTxwSznRLxcp8pEQx/OqVScFaP/Diq058vLFW+Zg6paPYrHcqG2su2T5iQPQmopoLtECLG0gbkFSf896v3+qaheWw8vS5GikXgvIEGPpkmsr7RrdnAcvalFACqSxI/EjBreDm0cdeg3FFK/tbqJW/dNjHOQayru8kt3RpMgA55Pb+lbN0t7dBZJ9TYZ42IoB+npVdNG0pHaQW+/kgmb5j+tdMZcqvI4pUIrqZV/c2VyxjFxEoOMkNmvEP2lv2Tfgz8f7WS+vo00vxAqYg12wt/3jYHAmXAEy9OvzAdGFfQDwWVtGRDDtJyMAAfyrO8mI/KseR6kc12YXEyoTUotpo5MTQoVock43T7n5JfG/8AZ++InwE8Q/2N4000NbTMfsGq22Wt7tR3VscN6qcMPTBBPEV+w/jr4YeA/iL4dufBfjXw5b6hp90pE0E6dD2ZSOVYZ4YEEdjX50/tefsY+J/2c9WbxHoDTap4SupttrqO3MloxPEU+BgHsH4Dex4r6/L82pYt+znpL8z43MsnnhP3lPWH4r/geZ4dRRRXsHiBRRRQAUUUUAFe4fsYfsga3+0l4obXNcimtfCOlTD+07xQQbqQYP2aI/3iMbmH3FOepUHi/wBnH4B+Kf2i/idaeAfDqPHB/rtW1AJlbO1UjfIffkBR3YgcDJH61fD/AOHPg/4W/Dex+H/gXS0tNN0y0EdpHt5cnnex/iZidxPctmvGzbMvqcFCHxP8F3/yPdybKnjp+0qfAvxfb07jfB2haJ4W0O18OeF9GhstLsLZbeytII9qRxjsB7/mep61uJ5ixhQ24txjpTLK3W2lSFkG3hSPTHFb0WmwTwG4jG4KMKM18NiMRrdn3uGg1HToZTwbGR0iJ/eIGJB9RXTWmjjywh+VgvzNngAcn9KjtrO3lhe2mTaQvyknnIzg/nU15ZTX+g+XaS7J9QkW2TLcqW+9+QzXnTrOS5TqVL2tRWdipoGi3XjPXk19Eb7JBGYrRyMGQsfmcDsCOB+demeHPC0CloY41IHDSMBheOg9aTwt4Yg0rTINLghB2IE3nsuMZ+v+e1ad1bwakh0bQLiSID5Lq6H8A/ujnlv5fy8uvifaS5YaJfkd0IupO2yXXyIrS7vmvm0fwrbK8seRNcs3yRD3Pr7c/pisXVtRm8K3h0rRENxrl5jfNKuTEp5LnHCqB26k1vXGt/2LbHwn4Nhj+0xj/SLkj5LfI5JP8Tn0/kKTSND0rRg87Rie8n+a5u7lsySN9fT2HpXOqihq1o+nV+vl5G6dOn8L+Xf18vL/AIczdJ8NWGkWx1J4GutTkObjULpdztx0BJ+Qew9qS+tpLoCW7clT95RxvPoSa0tQ1KeZRGihAhwMY/P9az7yWO3Pn3ErM4HTuM0KrKcrsUaXPLnk9TGlgCStDJ5aAMcKo7fXmqeq3yeWII12jkMcYzV+8hNwWlKEc9PT2qjeWQClJQcsNxccba7ISWlyHBOVonOShbJTY7SEBLQsP4ge34VlXSedP5aFsZy2Tmuq1G0gurMRNGQysSr+n/1qyWsiqLK0S7sE4Vv8a7adQxrQcncwjpzA7sjJ5wahlQygoiHlcA+lal1aOqM0kRUk9/T14rOZWQgBQwZjynpXdCakckqTTKEkD4/eyEgdWFVo4E89owMhcFT/AJ/GtO8ilKOFXbxjg9RVFoXSMSLH8ydcnjHpV7I5XTXNYguYGYmIADnliawtf8P6L4k0e88OeINIhvdPvImhu7S5jDRyoeCCDXQXzxeX5iLukfgKeoPH5VmywSW7iNhxjj61vSm4u6MalJ2sz80P2yf2R9W/Z28TjXfD8U1z4U1OYjT7lss1o/J+zyH1AztY/eAPcGvEa/YP4leAPDHxK8JXfgfxjpaXVjqMBjnhb06hgf4WBAII6EA9q/Ln9o74C+JP2d/iXdeBtb3TWrfvtI1Aphbu2JO1/Zhgqw7MD2wT9tlWY/W6fJP4l+KPhs3yx4OftKa9x/g/8uxwVFFFeweIFPt7e4u7hLW1geWWVwkccaks7E4AAHUk0yvpz/gmF8A7T4kfF+T4oeJrZX0rwmVltUkIAnv2/wBUOeoQAyH0YJ61jiK8cNRlUl0OjC4eeLxEaUN3/Vz7K/4J8/su2HwF+DEUGq2cf/CQ63J5viGfI3RyjIjt8/3UBI9CxcjqMe0z6Skc7aSZCfLmXy5BgqQDkjPfGMUvgG3E7Xnmfca8YlR0PAz+tdLd6TaxW0eoRMQY5wrfJkbW4P5V+Y47F1amKlKT1Z+nYPDUsNFUY7JaHPRaQLjJjRt6tzyDW3pGmXFhcgTQ5BPQjp3NX7Tw+1teNsIPoyntW2dF3LHM1wV2jJbYfx/SvHq4hvQ9ClRShcr2eiRsQ7EkzEZbj5e9N8K+Ere98ezzzzbrPTVLhB082QAfnj+dddFZQaT4YutTuEUrBGzrtxyAp/n0+pq/8MfAUE1gguS3myq1xqbRjG5mxiMewBx+defLEuMJu/l/Xy/M6qNNShKV7f1/X3j9HtLzVkOm6VC0FuWAnuwmWcc/Kn59f8mp411ODwpHb6N4Ytx9tuyYbKAdd+OXyewyCT1Nanjzx2vhSBNF0jThLfyr5VnZxJ97J4UY5A9T3wa5C0+DmsazqC+IvGXi+5e+G7zIYfkSD1RfUdsjj+dc1Lll79R2j08/6/4B10afPFc+kei7/wBf8MFp4j8OeFrD/hHLaeW/1IMftb2sTSNJKfvN+fqarG48c6hKLi08LG2Q8ebe3IHHuBzXR2+lab4UMVpo1kqwcg5GcMf4ic85q28UlzIdxKsOxPf/ACKTrwTule/f/JGqhh4Sva7OSnHj2QCxnvtOD54EULHj3JxWfqVv46s5PtV9pVvdxqxyts5Df+Pf0ruvsIWcoVxlRzj86sHSIngBnJVAOcdMdc0RxST1irHQ5OorcqscFp2qw6oWRIWimT70Eq4dTT20qfzmkmy+E5PUD2FauqeFNP1q4+1wiWF1GIbiJ9rcd/8AD2+tZ+oW/ifQFxYah/aMG75oJ1VZPwYdfxrrjUhP4Hb1/wAyFRh0Zi6lbyJIFIAXnOB+GKp3dm/llYuOOB7VfvPE+jRI0mrw3FvKOTBPbkMeO2BzWTqPjTQhhJjJakDhbuAx5H1IruhCrp7rOKVKad7FW7j2BRIxLHPB54qhdWoluEcnB+7xxkY9qml1/QLphNHq1qyoeV85ef1qlfeJfDRlQx6milWOXYNjkeuMV20oVHpZnNKnJvVFeeFlDI0hOeQ3pVUxSRJsl+YHrgH86mvtf0WNCzarbFQf4Zgc/kc1mXOu3NyPJ0mwdEOAbqaIiMe/vXTGFSUdjlnB3IFid9QlkyMKqgZP5/0pt7tT960fzbeFYdaf/YVxKzzXOs3JdjlxG+wH6ACqd3osxYSR6xeKw+6HcOB+Y/rWi5XLcycF3K88jecXD7geOR3ryf8AbM/Z4sv2gvhNPYW9ui6/pu650Cc4B8zHzQk/3ZAMegYKe1epS2mvWNx5heG7XONrDy2B+oyDUd5Lrf2XdNoiFQwZ/LugTgH0IFduHqTo1Yzg9UcVfDQrUJU56pn46XVrc2VzJZ3kDxTQuUlikUhkYHBBB6EHtTK+j/8Ago78GLXwZ8T4/ij4d0yS2sPEpY30DRbfIvlHzn0xIPnHqwkr5wr9Aw9aOIoxqLqfmeKw88LXlSl0FRHkcRxqWZjhQBkk1+s37JHwQ0v4J/AXQ/A+padENRaH7Vq7mIFjdygM4J77eIx6iMV+ev7DPwrPxa/aV8P6RPAr2emSnVL4SKSuyDDKGx2aQxqfZq/VawjJUNdxLG+ODu+Vj7H1+tfPcQ4lrloxfm/0/U+n4Ywjm51+uy/U0PDEaeE9fS8R5P7Kuxsu40JIhk7P7Kehr2HS9Jtry1aMx5iaP5CFGT/9b9Oa818KwC5LWs67kkUqRJ0Oa7/4X6hcxSP4QuJWE9oT5Hm/ekhP3frjpX5/jpyqJyW6/I+zirw5uqNPRfDxvrJbiBm+Viq7lIJ7An9fzrd0vSmfK+UCP7pGc9jV7R9Mu9OuJbdLffHMVaA7uVwcH9cfpWvbackSv5cZLE4+ZenGfzzXgVq7cjp5rbdTkNc0fWLy9tPB9vA7Q3UoluHXGfJjIO3HqWAH0B9K9M8UXNj8OPBsVrBAsmpStsSNeWllYDj6Dj8veuU8P6laWnjO713VfkGm2u+Zc5xgkgnnpnJ/LvmrXhS8l8X6qfH/AIlkZlIP9k2CjOxSR859zj/PFYVnKUYp/CtX5t9P66HqqnaiozWkdX5t7L/Mk8L+FtO8MxT+INbxc63djddXTjIhB/gT0GMDj0qvfSGe7keFMoMgsDwR6Cta6uJtRuXa6jKQnpD3P1P9Koz7Zn+yRxooOPlUcY/z/Oud1JTlzP8A4Yn36krsxbywku1ZHjBX2JAqS0tZbdB5+SW67T1I9c961JbQQxhXU45OM9DUgs5J4DFFGd6/MTjhfqaXO2jopwt0uUPsDyPsVMHAJ+TgCo9XtsQ+QgIDELxxx0/lW3Y2StBvZiXB+bP+eetL/Zcbq0lwmVzgHPrUqaubqFnqc8unSQIW8sAY+UVl3VtG0zSYBIB5z/nFdhfWqPBhDng5+vpWJqulmCJ5SqqgGHJPet6VR9TOtGzsjkNWtTPL5yMo8lP3Z2g89SCPTpWDeubqIF41ZZBkqyg10OqX+nQQP9nieZgmWZBhQevXpXP3MOqTQqq+VFheB94n19BXrUpSa1OOqvMwLrTNPF+AbG3YtCTnyRkYI9vc1U1q2H9lSrlShjbIIz2rQvdMtDqfn3Fw7P5ZVVL4ycjI4wPT8zVe+0ezkgeGO3ZTsIyGb/GvShNXWpzzl7tjFGjabArSQadBGSDtdIQDUiWcUymOVflYYbI61YSzkZVazum6f6qYbgCOo9f1pvnPGfIu41jJPDZ+U/Q/0rp55Pqcji27mRLaJZTNZ26lkK5jPpzyOfwP41WuLTem2RRz09a2HsY55RGJMEKSHHUHsahkt12pJMAGzhgOx70/aPfqZyhzHO3MckbKxjBVSOeg6EVVuYysfDBhzxnArbvrJpW3R/mazjA0YO9dwI/u1006isY1Kd4nlP7VPwRh+MnwP1rwbFbiW+W2+0aU/dLmP5kGfQ8p7BjX5WSxSQyNDMhV0YhlYYII7V+z0kj2wMjqCNvY1+X37dHwwX4XftI65aWlr5VlrLLq1goGBsnJLgdgBKJFAHYCvr+H8U25UZeq/U+N4kwlowrpbaP9P1PoP/gkR8OEOjeLvircw/NLdQaVZSY6BF86Yfjvh/75r7es4VVPKkJdXHRgMYrwb/gnD4L/AOEZ/ZJ8PzxMI7jVHutQuVkTIO+ZlQjocmNI69yjl1OBdyxCUA8+U/JH0bj9a8PN63tsbUd9nb7tD6PJ8NHDZdSfVq/36nS6LaXOlCPULcs8fTZnlQPQk8/Q13ejrHq8EGqWkrJqFmu+0uMcnB5Qj0PT8fwrivCutLdx/Y3iYrkAo6FWU/Su48Mx6baXQlcyRhiFL9snt9a+TxMpRvfc9unGM2rHp/gnWtO8T2VtqcSbXC/NHtHyt0ZT9D/Kui121j0+0+0QEEiP55B0HTHH41x/wn0eAeJZrSxRpI7rEoRdoB7E5z69a9Y1iw0670WLw0tjtuZplWQk/dQnG6vmcXONOuorb8ke5gMlq4mtG3w/oeJWWn3niXxDqaWURj05mjhvbwqfm25LKvrlmP8AWvSxDo1hp0Nvo8MaqIvkCD8MV6Zonwg8NT6LHo9jYG2iUElojyxPVjnvXPeJPhte+Dp0tLpoRbAkxTHOTn6VxTzSjXnyLS3Tv5l5jTrKrypaLt+vmcNNYTzgRsCpCkhSMnB/+tVT+ynt2wCQcclu/r9eldJc6ctrOjpEfmOFkkJVR/jUGoeHlltTd6jKZBg4CvsTj6ZNXGqurOWmk1ZnONNYlyjy7cjhsZJ+nPFTW98pB8rTJih7pFhfzNdPZWtslmfsdlGq7eGWMA49agexnnjIaRAo67vShVIN2sdqUYrRGCJL5Y8QaPJzg5d1H9TQsmsFS4s7cL/00mP9FrTEMRj2+YzMDyR6U6cosBMSD5R0PPFaRa00K59LtGBNBqtxetFLcxwggHEC5J9eW6H8Ky9a0oyPhlaRm/jkJb6nmtyW6d8twpHcVQu9UgmJDJlwxBrdOSehn7S6scprdmIbOSNYFZFQ4ixtDewrFltlaAHZzx1OO1b2u6gGJEZ27zt3MM8GsS+DBcI3y4AB6c130ZOyOCskkYmoaTDc38cjY3orEZP3unH161QuYog5DEjs3Pf6Vq3cU6sspkQtv4B6c/8A1qzbhUF2TN1YYJA4zjg/0r0IvRI42m0ZbWaW848h2BmBLgYxkEYJ98Gkv7FHhKPGHbPCkcH0z+NW7uLdPHIqgjd68dOar3LmFsyMcYINdMZMiy3MhdPtVk8yCRoSSTtjORj3ByPyqpqKXKXBWUKYmGRKiYO4Dv8Ah/KtSZBuJjPbIx0H+f61Wll2yqHUttbI2nHOCK2UnfUXMluUJo4pm2Zz3AXoazL6zuolYINq98c4Fa3lm2UywscLyY8Zx9PT6VX1C6We2CiKQZXI+Qn+Vawm1LQzlHS5hzWsbMIWOVABwxIz9QK+N/8Agrb4CF14d8K/FK3gwba8l0u6cD7yyL5sf4Axy/8AfVfZ4eF5VilRgQPn+Q5P/wCuvEP+ChnhiHxb+yp4nWKMPNp32e/t8L93y5k3H/v2X/OvbymvKlj6b87ffoeNm9B18sqp9r/dr+h6J+zNof8Awj3wK8E6OQFFr4VsFm/3vs6Fv/Hifzr0W1ubQSfJENueR61y3w8eCDwhpEMVphItKt0ChhjiJQK6OzeKfDR2hGCM/MMVw4u86km+rO/Cq1CMV0SOgsIrSZldbfDIRtlU4ZeexHSut8OQSi5S6W5lkZWym/A2n1GBXI6PeyKojjtNwzgsZeP5V3XguO/3+aPJTAz1JJ/TArwsSnGLPUoxk5JXPc/h94LuIfDFv440m2L3yTFjGg5lixhwff0+ld/r+i+emiatphEkrymeAjncgwSD7c/pV34ESWGr/DbTjCoV4ZGjkU85bOc/jXRzeFm07xfYaHZ3md9pcTxRug/dBt5IGO2WwB/hXxHtnUxElPeN/u10P0HAY2nh6UYreKb9VZ/1953Hg/4Z+JNS0Oy1nUUjFvdQrJFFCWjByOjHk59un1rU1T4TW2o6XLZSWFtFKFLRSFS7FvqQK9n8B6XpUvgSxtpUCGOzRWDZPRcc1ia7Z/ZJmijYSAfdK46fjXPmWV1cPRjXhL3Wr6H5NU4lxWKxk4bWb9LX+4+QPFng7WrOc2k6Wh2SESFwVI56981zcuk38G60lv4gVbosDMB+JbrXs3xphsbDxVcMtq/zAM4Kjnv615breoqHOyGVQT08kjGe9c+FrVJwVz3MLVlKsmluYR0C4nk8ifUJnUjIVAFA9egz+tRv4Y0iKHzZojI57yNvI/E5rRudUNta73iZeoztPT3rLbWY5GxLOArDPzE8/SvVoc0nqz2byjAyrm4TTrvy44VSJh0/un8sDP8AP61LLD51v5ZbBZeABnI9agv7lJtRALjax4Geo96tM8EEO1IkwVIJzjNezRp02rsxnNy0ZzOs2M1qWa3WQgnlmA6VzmozvFIWDtuA+Y+n1/z2rtNRlDxMC2RggqCK4TxDcCBnQdCT3pui1qtmTLYzdYvonTcxBwDnjPtWBca4EO0k5xhiD0qtr+uNbB4yQFX06fSuI1fxmkcpXzO3QNXoUMHJrRHLKMp7I7q+1KK4tfM3hiv3QB/EOhrNnlS5g86JvujPP+etc7pvioXFscMevrzzWjZajGIxGnQYOc/nXQ6Mo7nNZXsT3MuxdzOMKQyg96pXV0JWDoFyeMg9Kku3ADbCdp6AdR7fSqbb3IA4Xqa2prTUzqKyshZHQHeDk528H1qusW6Yy7G7nOe9WVMYwRHvBXFPaORj8vykDuOR61V1sZJMz5TEiMmzOepbpVNoN/G8/L0JPpV+6ktlJbPzFeB61VZC0IYOMnkhuK0iElqZyQMHeWTAY8HaOK4v9oXQY/FHwR8XaGUVhceGL+JOOjG3cKfzwa7wyzJHIpRSG9awfGIW88PajZTwqY5LGVXB9NhruwsnGspdmjnxEYyoyi+qZm/Dy5M/g/Srz7QQkmmW7JgDJBjX+ldRpeFYByXz0DN+Rrzv9nTVj4k+BPgrXVQsZ/C9g0hLDG8QIGH/AH0DXpOiWtxLLuyiY9ckk/pXTio8s5J92ceDblTjJdkbukJI0o80ZrvvCpYSKsSndkcZxXJeHLBnZI2vCu5hkpF/ia7TQ9L+z6kuy8yiKGc7cBRXg4pJrU9akrS1Z9A/AfxZfaNax6EkseJHLCSUZ2ZxzivRtd17TLTXtP1G01maW7TIu51bLxp3I9ByTj1xXzf4L1u88Z6hIdLYw6ZA+xXU4adh1P0/xr2rSNS0jTtCNi9ssUwVf3pXO7DA9+v0r4/FYdUK/N33Xr3PsMqxmHUo06m+3yemv+R9FeBfjb4i2t4VvIo4byCNT5jvxPGekiYHfuOxNdG/inUFR728gjZVQszpNn8wQK+e7u/FhpVv4msNXY3FnECqmUtlcfMuD274FS6j8cG8U+G10vRpPJdxtlcScP7D0+n868DEUsRWS5G+VdNdP+AeHmOR4KL9vQSs/it0f37PoO+Jvj5df8ST6qunOUV9qnhsY74Bya4nU/ENlriiNp1Ty/UkHPXp1FT3Mcpt3aUbySSMAZ/TrXP6tKL+BYJ0xh+DjDKcdm6iuyhQjBJEYelRUrpCa7ctMotYJN5U/M6nPBqjdQqbfzFPIGOMZFOOm6jaozW995u0ZEc4yB9COR+Oaoz/ANrSq37iNMg/cc8fhiu6EVHRM7uWT1RTvLqK2ha5lULs6tnHH4VHN4ht3g8wNJyPkGw8/wBKZJorO5ae5eRhyA33VPbA/wAc1DLBbqNrHuc+45rtp1uR6GbVnqQXt87r5UkoA6gIT+GTXOa3axSs0uwk8/MB71q3iyK20cjOA+M4/wAaz5rd2RgSS2O/PNddOvKT1ZEpu55r41sR5MjqnUHivKtUs72K4kjjQMJPlOe1e++JPDYun8tXPTc+O3pXF6j4URLnY9v1JydvXFe5hcWoLUwdRwZwnhzTLxQrSKeua6eytRGpeQk59a0V0WCF/LCAH+LI4x9afHboU8tCN2SM/j/9arqV/aanLKTlK7KryqItjRAHGc8VA5kcBBHhei59asXNukLIrkk+Yeg5xg//AFqZIm3aEUgkdMVEXaxnOTZA0U1tIiZyXJXOOMYz/Sm3k3lv5SNk9C2c1PcxFEjfI4kUhh/CM8/px+NFxaRj96QrY/ICrTRLTcdDMuc+SZZoVwpBPGcDIqK8USKERsM3Iz0xV6UISxXAj2ZcHGKowCR4vNul2Yj538nGK0Tb1C+hXljfzCVGAAMA8A1i+M5YIPDep3bxY8qwmeQgdAEP+Fbd2kgUpCpEec7yOSPUCuE/aB1j/hGfgZ4y8QGUj7J4Yv5Ax7sIHIH1zgV24aLnUSXVo48RP2dKT7Jnk/8AwTx8d2fiH9lPw/bXU0hm0qW4sZmSNmxtmZkHA/55ulfRGlapp8SA/ag7MMoiIWY/gBnNfEP/AASK+IkJ0fxd8K7y4wYrmDVbOLuwZfKlP4bIf++q+7vC7WkrCedikajLMvX8zxXs5xTVDFzuut/v1PDyfEe1wNNrtb7tDe0vWNO0hYBqYktZH+ZVmXg/iOAfrW6NV1Tx7dL4X8PTGK0YqdSvY8EEf3Rj8vf6Cuf1u+t10iUiJWeRVWGIkHZz1+tegeAbCLSNPitIWVCUBL4+83Gc/wCe1fM1pwhT5ra9O3qfT05KEVK2p6P4DstL0jTobGyiZI7dNqpjv6n3rvYL6K+sBLESoAwy5/r9cV5vpN8PsrhXIbaCv4d62NH1C7kkjVLspGTkgfxY5z/Lj3r5atCU5Ns2pKSmpnomg3i3OmpHNJvbytrKeMEcHr9CK4m/vV8B+MHsbpymmXxLRTHkROO/HTHT6Y9DW5oWqpJvghukX5skoRw2Oc8exNQ6/oVv4ltmt7lBtKHjGOccHPauWEI06j5tmdsZTp1Wnsyzbaze3TkrGGUL8oUdc9Gz3z1pssxVC9zGcnnKLwW9PY1xXhDWLnSNYPgHW3Ed5AWGn3DHG9eSFB/l6jjqtb5l1+xlkilZJAV/dhgfmpVaChO33eZpKPsp2RYvp55kDFSCDyS3UVUa7WE4eTaCO549xUFxJqm1nvrhIUbO3C9R7+9URDE873EmZG7eYcjFTGHc3hO2rLVzqFociAF2x0UcD8egrOmsGnmcTTqq55QEsfzp09yp+QttLYAOcis+4doJxtKkgn8qtRtsOfLJ3RLdBFwh2bMYGBjFZOqr5cQurdsNu2op6MfSrt1ctJFzJg5+9uzisr7Ut4TPK3K5CKOgweT9TW1OLWpl7rRBOEihYuSxJz8yjk1zeo263UzOrdBzx+ldBc58tvNZiOv0+lYWpj7OplZxuIzk8ZrvpOTZx1FZmFPEUmkGMEHAweMf5NUYkAJcsVBJJP48VqvFKI+UwxAJPXk1BewxQQ4j2sAAEH949q7oytoznlByl7pmzLHPeo4OfLDBxnjORgfpSyum0jYCPXHP+f8ACpDYGCPAkBK/eZuNx9TVW8u9Oih2tdx7mUZ2tnPHtW8VfYiSd7JDJ9uDNHFvJIARuhzxg+3NJLttoltQQ2FC7/WqkWq21xeB52YJAvXyyQznjPTp/jVm41PTViMhlBIHJ8pun5VtyTTtYahK1rFG7Z5JDbJH+7YfvmHX/d/+vUdyA+UDK24/MuOMAZ/GkgumWDLWs8jTDewEJAye2TjoMD8KrzHVZJBMqxW6huAQXPp7CtVF3sZzTihl2znkcAHBycfSvBf+CjPi3/hD/wBkjxOFfy5tTW3sLfP8RlnTeP8Av2JK91v9PvXG6bU5sMB80aKvPboPpXxD/wAFe/H62vh7wp8K4rqR5bi9m1K9V5CSFjXyojg9iZJf++a9rJ8Oq2Oppd7/AHa/oeNnVeNHLasr62t9+n6nzl+w38UI/hV+0p4f1W+mKWOpzHTL/wCbAKT4VST2AlEbH2Wv1k8OT7HDXESsyMQsZPyp7+5r8QEd43EkbFWU5VgeQa/Wv9jv41J8cPgZonje51FWvFtvsmrpnlbuIBZCfTd8sg9nFfQcSYVyUa0fR/p+p85wtitZ0Ou6/J/oe26lqkV7LZafE5klmu1yMdAp3MfyFd5oesG2VYmdTEccV5R4dv7Vtbn1GRwRbgQxAnjJGWP16c12WkXpuWDp82euOce1fCYmnZKJ9pzONkeoW+tm7ULHHsQ/KpX+I8Vrr4nl0uH7SrfNFGQCBwc//XArgtM1mORhCxKbMVcvdYMwhtBMStxNhs91yCa8qVCMnY7oTvJXPTvBl+Xt42ukKu43nccDnnGPXp+VddpOvRzXDWV0MSD5SG6MOPmH4V5hoetqzJMWYrnoo5NdJJqgulWSFSXjHBDYb8P8/wBa86rS953NlWUnyyLHxS8KReINOW5tH2X1owe1uI2wwxzz+Iz7GneA/Gn/AAl+lRWmqMPtkMnl3XIBVuMP9D+QORWVe+J5xamJgWfbuBVSGB9ME8/UZ4rGm8M22pxx63pOpvZXyJxcQNgMfQ44IqlSvR5Jv0fY3TTio1Pkzu9aME8qxTHYAB8u3j2IrHuXMNqQQAcYWQHkj2PpiuafxR480K3jm1rRRq1sMgz2xw649R3/ACp9n8UfB+tw/wBlfb2t7gHiK5BjcH0GeG+gNZfVaqjdaryNfZzSvHVeRZub0W0m7eGDL97sKo3eout2N7gKVOG9enrUOtXd8ziC0jRmXncxwuD0z6n6VlXFqzXCzarcFyuCgKjYDj0/xrSFJW1JUrbstanryo5itHSR/wCIA8KPcjpVWK6lEHzFXJJLYOBnOTVS7v7eyZrW2s1aRhxHEMY781kX7aldZFzeNAmMCO3OCPqe9dEKF/ImfurVmvf64sSN506xgDLKx5P9T+VZEuqNcvDKbaZlJ2j92VB465OP85qKKS1s0ZIYBnj5m5P51Bc3E019FatkhFLAgcnt/I/rXVTpRiYynHdakl1eak9w6pYHjgjzB0/yBVGR9RbVlDKsShDjJ3ckjt64H6+9Xb+/mjCw2p3StjGc4Az1P+eaZhbeL55NzGQbix5JPWt4q3QwlNxewSWVn54a6DTZ5BmfPP06CoL37KmRBtXIyCoAqa6mWS2KMvzdscVnrIW2mdT3+hqoxbMpSlLVla1kR5bhgdz+aAx+gGKbq+42BGRuddoAPUmpbWCK2ubifdhQQ2evG0f4VWjiluwb5s5cfugf4V/xNdC0dw5XHUi1FzLF5iOQYRuAJwPpVWW6V7clyV3dCV/rU2osqxmEsfQnkYFVLmQxW+0KSq/rWsIqyMHJyZTnMyAlLktg9G5Br8ov+CgPxZHxc/ai8QajaziSy0Z10ixKnI2wZEhHqDKZSD6EV+if7WXxth+A/wACvEHxBinEd6tt9m0dSMb7uUbYwPXacuR/dRq/IWWWWeVp5pGd3Ys7scliepJr7PhnCu868vRfm/0PiuKsVZQw6fm/yX6ja+kP+CcX7QzfCz4kXPw21q4b+zPFIVLUFsLFfrxEfYOCUPqdnpXzfT4J57WdLm2maOSNg0ciNhlYHIII6GvqcRQhiaLpy2Z8rhMTPB4mNaG6f3918z9nPDN5BbWcdq0vmS5Lu+77zk5J/Piuz0TxAlrBuh25XjBFfLH7Gf7Qkfx6+GsF9f3a/wBv6RstdbjGAzNtOybH91wM/wC8GHYV7/pF6Vhys2TgcEDB/KvznH4N06rjLdH6Zg8b9aiqsXoz0jT/ABBCkLTzjG4HIx09609I1JrqRdQYkR4wiHqqnjd+tedwa+bhhZlSEjG6U56k9F/rXS6ZqoktTGJRtK8Nu9q8WrQcD1Y17Rs9Weg2OseURaxE/KRgnHGK6LTtY8pUU3BJGM4HT29vSvMtG1q3kYMrB22ZPzc5rd0zxOkBLyRcfxMAK4KlC7sDqXVzr/FN7Nfy22nQXTKbgFn7EquMj6/jWjbaZNYxC60qVmcqDPas/DAdx3z1/D8q8/1/xObexTUVnYSW7q8TBccEgEH1GK6a18UxzsksUyAquCSfUVjOnJU1bY0hWnGKS2Op0/WY7iwRolGHO14+5PuKzvEngvwr4nt5rXVtLSSQjiXJ8xR/ssP8+tZmsaq9jGNVtLgxyEjzR5YZSPccd/8A9YqGHxhr6SJLdaccKuUeHIJHfjkY/GsVQkpc0HZmtOdRNOnK3zszAm0rxr8O5HNgG1vSwMtCxxNGPVSev0/QVlXvxK0zU444IJ1tDOeWvGEZT1GCcZ+ldR4x8VzahYrY6Vb3Mc9yQriX5fToPXnr/wDWrO034Z6F9huLTUtOjndCGdSudjYHAPUD/Gu2MocnNWWvl+vQ7FUVr1Vr+ZTtJ7W3twlldLNnOZhIGDH6ilmkM0UhkcZx1U1man8JdJhuXn0K+utNkLD/AFUxKsfcHk/nWPc6vr3hSQ2XiI/a7RjtF5GmGH1Hf8MH0z1reFCFTWm7+T0f+RhNqb92VzZafzYjIMDOQARVS8uooL+OeSUD92+MdSfl6ev0qRLqym046jBcxPGq7g6Nkfh/hVbS4JrmRr28Q5dSI0cfcTP8z1NNQtdswi7L3i5YtMiGW6j2mViw9VHaklO/AwvynJz3qOYxwAgnaD05HPNMmuECCORRuHAI7Cnyvchz5txsl0scuAw4x94YzUE17aW9tI17KsccfzGR2wAP/wBdZ2pa7Y6dJ9lkd5p+iwQruc/Udvqaqpos2pumpeIPnYNmG2VsxxD/ANmPvW8aKSTloEFbWWwk/i3SZYnNu1w8UjEzSJbMQFHAHT071JY6/o12BJDqkTbvuqXGRz/d7VpQSWzZS4k6LyvrWTr2g6XdA3M2mQSA9W2jI/rWkfZSdrNFznFq9ia4uLV3Gx8c8qP4qoX9yLbKtKAAMkHHH+FUJfC3h5bhVhtHRCP4JmAB7Z5rxX9ub41+F/2bPhPPqti4fxBqqvaeHrWSZm/ebfmnIJ5WMHdzwWKL/FXZhcNGvXjThdt+X/BODFV6WFoSqzdkj5R/4KgftEQfEv4oQfCXwvqPmaP4WZvthjfKTX7DDn38tfkHoxkr5cp9zc3F7cyXl3O8ssrl5ZJGyzsTkkk9STTK/TMLh4YWhGlDZH5NjMTPGYmVae7/AKSCiiiug5jtv2f/AI3+JPgD8R7Tx1oLNJCD5WpWO/C3duSNyH0PAKnswB9Qf068AfE3w58QfBOn+OvB9+Lqy1GINbyDqG6FGHZgQQR2INfkfXsn7If7VWq/s+eKl0zXWmuvC9/MDf2ikk20hwPtEY/vAcMv8QHqAR5OaZesXDngveX4rse3k+ZfVKns6j9x/g+/p3P05sZ3itRHG+CTl2J6k9627e/aO0VUfnHTPNcB4Y8ZaT4p0W11/wAOavb3ljeQiW1u4nykiEcEY/yMVsR6q4xa+aSHGPlPSvia1CTdran3MK0d9zu9C1oJEJSQBsAzn2ra07X7feF80Bf4gR97mvPo9Ta3tlg34AHGT1H+NaGnXodg5ODt4HrxXDPDp3Z1e1Skoo7PX9cjvYIII5ceZcopTPXnP9K6a11yJYwroFbbgE968us71rzxIkbMpS0i3MS3G5uMfkDXSR6igQkEH2Uc1z1KCSUTqkvcSO11TXJrrRJS85UJ/DnoK3NH1uC6soygjf5AcE9v89q8o1HWr1bddOgUgzD73X5R1rc0DxHdaZElksuAqAp833gP61zywzUNCUly6nfa7DaX9lvtokRz0Cryrf5/rWb4d1yS21We+v7rg7YjM3I8wDo3qCP5Ulr4pto7UO75yo5HGTnpWa+qW9uzpHbRutw5dl3Y2v7Ef54rCnSlyuLRvzQULN6M6i7ubLU4TNGHWbb88bHJI45+n+Nc/rGnW1xaPaNGspdiGQrkEe9VofF95aL5V/poliwfK2Y3IT/dx0/T8KvaXPDrbme2vFc4Ib5wWT6ggn2zV+ynT16GErxldbHB618OvsLfavDl+1rM3zGMNlGOcjcP8c/Soz45utFga28ZaDcW7RZBuraMvHn1IHT6c12OpQzEskTDK9tnOc9hmqzaa1yZJLqIkKejN94Dr/WutV+aKVTX8/69S44i6tLU5GbxvpWornRo576Uj/VQwNnJ6ZJAC/Wm31h4r1KEC/1BLNAufItcl8ehc9D9BVjVoLfwXrkeoQoEsr1tku0YCP2b2rVvUChXJ3bu49O1atqDTgtO71NZOKjddTO0XStOsIPLs7dFLD94Scs31NOW7jljMaqSV4wRgD/PtU8cQDcAbEySeu7/AOtVa6WQf6RESo74XGazbcpXbMpTfKNmYQt85YuQDkcflUN3csyFImXdjaA3vTFmleZmuJBheFIbGRWR4r8SaB4W0a58W+IdYgsdOsIWlvbm5lCxxIo5Yse2Pz/GtIQblYz5+VNt6FP4i+PvBnwr8E6n428c6qllpmmWzS3c7ck9gqj+JicKoHJJA71+R37TP7Qvij9pP4o3Xj7Xy8Nqo8jR9O35WztVJ2p7sclmPdmPbAHdfty/tnat+034v/sHwzLNa+DtKnP9m2rEq15IMj7TKPUgkKp+6D6k14HX6BkuVfUqftanxv8ABf59z88z7OPr9T2VJ+5H8X39O33hRRRXvHzoUUUUAFFFFAHsP7LH7WniX9n7Vxo+qCbUfDN1Lm708N89ux6yw54Deq9G9jgj9Afh18QfCnxL8P2/i7wVr0F/YzqDDNEejd1YdVYdCpAIr8na7T4KfHz4i/AXxGNd8D6sRFIw+26bPlre6UdnXPX0YYYdj1ry8flsMSnOGkvzPXy/NZ4RqE9Y/ivQ/VuO9whJUHDcZq1/aMdlbNcSScKu44PavDf2fP2w/hn8foYtLsbpNI15lHnaNfTDcSByYm4Eo9hhh1KivTdRvUkeOy3uVM6q53cMOuP5V8pUwlSFTknGzPtKOLp1oKcJXR1Hh+W7YvqTkiW4IZhn7qgfKMfT9a2rXUo2y0s+PLIDA9q5/TL9hEGfggetSXpa5RUik2vI21sDkjqfrXFUp809T1Yy9pG51mm6w0n/ABM5VyHAWNW7KP8AHrWxBqMFzDGxVcrKMc468dvrXFRalcxwbCh4HQDgVbtNTuIbfzi+QvIA9Qc9K5Z0Llc750dvaTqZ1wwkVV+5vxg+vvUWp6tKZUWOfMYkztB9s/h2rBttXkYlt5U4POehpRqaGWO4MZY52sWPTPf88VgqUlK5e6OpOqfaY0kln2FTnC//AF6uWN7ZzEOXHmADLRsUOR7iuUi1ESZSc5z78EU+01MQXDMJxjHAznFZ+zbHG1zqLjUdTtJxIqLdxFuVUhZV6dOoaq8/i6ymlKRzPEc4aKYFGB9wf6ZrKj1YI3mvIVY917iquvXJ1OxbzCrADCuyDIPbr0qowjJ+8jXlhN3sW9a8SaRqtrPpWpRCcMhVI4FLsCO/HQ/jWHpXiy9ttOXRb23G2Rilvczy7Ayg/dzg8/jVCPUWure30i0+T7R/x8EcYUcHp6nitSQWkduNMmt0lixjaV49q6owhTXLbzHGcYe60a0+p6q9qph0uAqq4Xy78YP5rzWdc6tq0KbbnRZtmMllkD459qwruDVdKkK6FdkRFsm1uGJQ/Q9VryD9oz9vj4a/s+WM+i63G2oeJFTMWgWUylsnkGVxkRL0PI3YPCmtqOEqYiajSjf+vU4sViaOFi6k2lHzPVfiF8ZPBPwv8L3Xiv4gayuk6dap+9uLuJl3HHCqBksx6BRknsK/ND9sz9uLxb+01qzeGtAWfSfB9pLm103fiS8YHia4xwT3CDKr7nmuG/aD/aY+KX7Sfij+3/iBrH+jQM39naRbEra2ansiknLertlj64AA8+r7LLMlpYN+1qaz/Benn5/cfA5vn1XHJ0qXuw/F+vl5feFFFFe6fPBRRRQAUUUUAFFFFABRRRQA+Cee1mS5tpnjkjYNHIjEMrDkEEdDXv3wX/4KC/E3wKttonxGiPiXTYnXFxLJtvYlHpJ0k4/v8n+8K+fqKyq0aVaNpq5tRxFbDy5qcrH6h/B39qX4M/GaOODwZ40hW+kUbtIv2EF0G9Ajff8AqhYe9emwXZW4RpEG5YiQAenIr8cEd43EkblWU5DKcEGvVPhp+2j+0T8L/Lt9L8eTajaRrtFjrY+0pt/uhmO9R7KwFeHiMju70pfJ/wCZ9Ng+JFCNq0Ne6/y/4J+pNvqUM3yyg4HDYPWprW4iiRyZMoeo3frXxD4D/wCCp9mFS3+I/wAMZo2H37rRboOD9IpcY/77Neu+Ef8AgoD+zF4ojSK58eyaXK/Pk6pp0yYPuyqyD/vqvHrZVi6e8H8tfyPfw2eYGtb31fz0/M+ibbxJY+WN0ZYjGFq62rWckS8BfmByW/GvJtA/aA+BOtPjSfjD4anZvmUR65AHHsVL5H5V0Vn4/wDBlwRLbeLdMdGXG5b+Mj9DXnzws0/hZ6dPHwbvzJncTXyEbreUcdBnvVaS6uCDId4wecHpiuXuviN4NtYVmPinTYxn5i9/GAPxJ9KytV/aT+BWibl174x+GLYYOUbW4C//AHzuyfyqY4eq1pF/cXLE4a/vSS+Z6PHrcTqsZIYnoSen+FPkvgi7HuC3HKhsAflXzl4x/wCChX7LPhNnFl8QH1SVT/qNL06aTOD2dlVD/wB9V5R4/wD+Ct1goeD4ZfCueVyMJea5drGB9Yot2f8AvsV1U8oxtV+7B/PT8ziq55luHXvVF8tfyufZekzLb+ILi1MhYPF5gLHkDPP6k/lXHfGv9rr4EfAmKSHx146t/wC0IxxpGn/v7tyOceWp+TPYuVX3r85/ij+3H+0l8VZpBqXj6XSraRChs9AU2i7D1Uup8xh7M5FeSSSSSuZJXLMxyzMckmvaocPXkpV5fJf5/wDAPBx3FkZO2Gh85f5L/M+o/wBor/gqL8V/ieJ/D3wnsj4S0lwUN3HJvv5l/wCunSH6J8w/vmvl+6urm+uZLy9uHmmlcvLLK5ZnYnJJJ5JJ71HRXv4fC0MLDlpRsj5LFYzE4ypz1pXf9bIKKKK6DmCiiigAooooA//Z;" vertex="1" parent="1">
          <mxGeometry x="15" y="80" width="40" height="40" as="geometry" />
        </mxCell>
        <mxCell id="gmB4WwqZMORq6ps0vpDz-9" value="" style="shape=image;verticalLabelPosition=bottom;labelBackgroundColor=default;verticalAlign=top;aspect=fixed;imageAspect=0;image=data:image/jpeg,/9j/4AAQSkZJRgABAQAAAQABAAD/2wBDAAIBAQEBAQIBAQECAgICAgQDAgICAgUEBAMEBgUGBgYFBgYGBwkIBgcJBwYGCAsICQoKCgoKBggLDAsKDAkKCgr/2wBDAQICAgICAgUDAwUKBwYHCgoKCgoKCgoKCgoKCgoKCgoKCgoKCgoKCgoKCgoKCgoKCgoKCgoKCgoKCgoKCgoKCgr/wAARCADgAOADASIAAhEBAxEB/8QAHwAAAQUBAQEBAQEAAAAAAAAAAAECAwQFBgcICQoL/8QAtRAAAgEDAwIEAwUFBAQAAAF9AQIDAAQRBRIhMUEGE1FhByJxFDKBkaEII0KxwRVS0fAkM2JyggkKFhcYGRolJicoKSo0NTY3ODk6Q0RFRkdISUpTVFVWV1hZWmNkZWZnaGlqc3R1dnd4eXqDhIWGh4iJipKTlJWWl5iZmqKjpKWmp6ipqrKztLW2t7i5usLDxMXGx8jJytLT1NXW19jZ2uHi4+Tl5ufo6erx8vP09fb3+Pn6/8QAHwEAAwEBAQEBAQEBAQAAAAAAAAECAwQFBgcICQoL/8QAtREAAgECBAQDBAcFBAQAAQJ3AAECAxEEBSExBhJBUQdhcRMiMoEIFEKRobHBCSMzUvAVYnLRChYkNOEl8RcYGRomJygpKjU2Nzg5OkNERUZHSElKU1RVVldYWVpjZGVmZ2hpanN0dXZ3eHl6goOEhYaHiImKkpOUlZaXmJmaoqOkpaanqKmqsrO0tba3uLm6wsPExcbHyMnK0tPU1dbX2Nna4uPk5ebn6Onq8vP09fb3+Pn6/9oADAMBAAIRAxEAPwD+f+iiigAooooAKKKKACinQwzXEy29vE0kjsFREXJYnoAB1Ne8/CH9gf4keM7aPXviPeJ4X051DpBdrm8mHtGf9Xn1bkf3TWFfE0MNHmqyt/XQ3w+FxGKny0o3Z4Kqs7BEUkk4AA5NelfD/wDZG+PPxEWC60/wTNp9pcHEd7rB+zow/vBWG9h7qpFfbPwO/Zx+Anw5t0m8J+HrdtSijzLeajiW6PqQzY2/8ACj2rvtHsXgmGtJatLEpZYomBJRM/eWvnsTxC02qEdu/wDl/wAE+mwvDOl8RP5L/P8A4B8s+Bv+CYVntS4+IvxHuXz/AKy20ax2AH2lkBz/AN8CvVvDP7Bv7M/hmJZG8FPq064xJqWoSv8Amqsqf+O17rpslrcANDGJFfhSvTPp7VoXGjJcKFEOwkcEDBFfOV86zCrO0ptemn5WPao5PgKa92mr+ev5nn3h34BfBHS7ZU0n4QeGrd1H+sTRIC/4sVyfxNbdj4I8J2kLJa+GtOijQ8KtjHj8ttdBBYXWnbpWRnTB3nbyKILJp8MyZRjj5RyK4JYmrJtuTfzO+nRpxSSivuOPtfA3hOS+uLS48M6dKDJvCvZxkEEe4+tQ+If2fPgrr8AbVPhD4ZnYj53fRIN/4MFBH51115octpq9vcrC6xyt5LEnA/2f1q3caW9sWilc5Bx97FaPFVE1KMmvvLlhqTTco3PBvEP7A/7MXim4eNPBD6bK/SXStQlQr/wFmZB/3zXmfjz/AIJSaa8b3Xw0+KVxCedlprloJAfrLFtx/wB8Gvrmxshau9wxyQ+CWPYdB+X86t30h+zq4UEswAI+td1POMwozXLUbXnr+Z50spy6vB89NJ+Wn5H5g/E39i79ob4XeZcan4Ik1Kzjz/puiP8AaUIB5Yqo8xR7soFeVujxuY5FKspwVIwQa/YQxLPdopiwNvXFec/G39mX4KfGMyXHi7wXAl4wI/tSxAguQfXev38dg4Ye1e9heI22o14fNf5f8E8DFcPRV5UJfJ/5n5gUV9EfGz/gnd8TvAkM3iL4Zzt4m0tMsbeOPbexL7x9Jf8AgHJ/uivnqeCe1ne2uYXjkjYrJHIpDKRwQQehr6OhiaGJhzU5XPna+Gr4aXLUjYZRRRW5gFFFFABRRRQAUUUUAFFFFABXX/B34H/ED44eIRoPgnSt6RkG8v58rBbL6u2OvooyT2HWus/Zh/ZU8TfH7WRqN+0uneG7aUC81IphpiOsUOeC3q3Re+TgH728A/Dfwj8ONDsvCPgzRIbKytVO2OMYLEjlmY8sxPVjyfwrxMzzing/3dPWf4L1/wAj2cuymeL/AHk9Ifi/67nm/wAA/wBjb4efB20i1c79S1zA8zVLhQpQ45ES/wDLMe4O455PavYbLwzp8KkRWi+YBneRubP1Na62ChNixkbl3Ljqf8/1rQtrFI4xbsBuY4JxnBr4bE4+viJOU5XZ9rhsLHDwUIKyMseCrHVQBfRfMeky8Mn41LYaV4l8LQrHJaHU7OM4SSNgJEH0PWug020g01ilxOgz97eRwfSryRSa2vk2khS1XgyEfM59vb3rieJns9UenSpqUEpGP4UW21jVnk8PQq6hN9zbXQ2YPcY7H36V0pgIaO21Wzls95wGlGU/BhxUknw20q/sxeqrWk8SbY7m1k2uP8f1qzomuax4XU2niqA31kp2jU44Sdq46SL/AFxWNSpGq7w1t06/8E6o0o9Ff8yGbwndi3NxaqkkZHVZA2fyqC08OyABJ4ipz8x7dK7y38J6BrcA1TQ5vJ8wZEllLtB9/Q/lSvofiLSziS1j1KILziPZKB9OjfhzXIsStk/0F7BOWj+88z1/Q7y/VrMthCP3ZPbHIP51VtFmu7RXmizNgrISP4hx/wDX/GvT4bDQNU8yBJVtpVGBb3A2n8CR1rn4PCz2viG705bceW/7zhsj3P61vDEK3K+g1RlqnucRFYSveiN4Mqyg4A64/wD1ii6sYmuEwpVVf7p6Djiuw1vwzNbOk1vA42/fAIzt9Ov0qhc6Sj25miXeR8wBHJINaxrJ2Zyujys56fTo5plkZdvGRz3rL1XSY0ZkAZm3cH0rqrxRGMiPBI4UVm3Ng7uCzZz1Wt6VVp6mVeknDRHL3kUunadNcp/DGeM5w3r9K8o+OH7GPwz+Oelte3UA0zXTHmHXLKMb3bGf3y8CVfrhgOjCvYfFMTDT5LVAS1w6xqM+pH9M06OF4oSQrYC8ADivWo4mrQtOnKzPOrYenWp+zqK6Pyw+N3wD+InwD8THw9440rEUhJstRgBa3ul9UbHB9VOGHp0NcVX6t/EnwN4Z+Jejv4V8a6HDf2F3GUkglHIPVWUjlWHOCMEetfBH7VX7Ifir9nvVDrmm+bqHhi6lxaahty9sT0imxwG9G4Dex4H2GXZtDFJQqaT/AAfp/kfGZhlU8LepT1h+K9fLzPG6KKK9k8cKKKKACiiigAr1r9lP9mLVvj/4p+2amJbXw3p8oOpXqjBmbr5EZ/vEdT/CDnqQDyfwR+D/AIi+N/xAtPBGgKUVz5l/eFcrawAjdIffkADuxA96/R74afD/AMPfDXwvZ+CvC1ktvZ2MQSKMfec93Y/xMTkk9ya8XOMzWDp+zpv33+C7/wCR7OUZb9bqc9Re4vxfb/M0PCXhbRPC2lWnhvQdNisrKyiEdtbwrhUQdOP1z3Oc81tQtGblzG29gQqovfjPtjqaatn9pj8rbwGA3kcj1xWpZ2cK26W8UG1V4OR7V8BUq3ldvU+5hS5UkiewjeeYJczeXtQbFTknnnJ/D/69atz4esYh5oZ2YAHDuSOlUbOEtKMxncD1FbdjZS3BLyNn5ckelcE58p6VODcUhNOs7dWJWzRSw5AQZrR8PW8sUEVvJGNu35Wx0XPtTUsp7fDxDmT5UBPOa17JFhZYlXACgYYdB0rmlUbWhvGlpqaWlyRRMIJIV44HPNalzd2+nWMhbdtlG0REZz7YqrZaXAz+e74XbnNXNBsz4g11pXkEtrbFVgI+6X7n3IrjnKN79Ed+Goe0TvsjN0Twn4t0GKbU/Cl7GrySb5NMeH90w9Aeqt9MCuj8O/ETSdTmTTNYmFhfJ8r2t5lOTxwxwOvvW4+n/Z73ytjKFOcqTge9Q+IfD9j4m8jTdRs4p4nkHmAx8456Ecg/Q9q55YinWl+8XzW//B/rUpxVRuMlr3/rcv6toGk6ntttW0mKRn53kAnpxhscfpWGfBf/AAi1+NZ0mA3MO0xzQSHJRTjJB68YqRfh3438PKP+EN8TJPax48m01JjuiH90EDJH5VLY+MvFehOH8XeErr7K2Q11bIHUDucDt9TRFzStTkpLtfX7mTClUjeMWmuxT1LQtLv4RqGnu5Vjho2X5lP0rlNb0H+xZWduYZidknZGx0/GvV9Q06yutKTxV4Ruorm2kG6VF53DuPY+o/8ArVzeraJP4uhKWMCx22cySYyMjkD65644rSjiLPXbrfocs6Lpu/T8jzOXw6v2dZ3ByEBCkewrF1bTrZHJcHcegzXompaPdI8kL2/7yNtrqOnrx68EVzutaCRGk23IP3ga9OlVTe5zVItxsef+J9OTy7S9XiNLlA+ODjkfzxSpHGgMaxnnqQMkVreMdJmHhy5wpBQB8E+jA0z+zpJrMyrEygqCGzg5xXoxq/u1fzOd0r2ZzWs6cECSQggiZTjbzzx/Ws/xD4Z0LxNotzoXifS4byyvITDd2tym5ZUIwQR/X2zXT65bymAE8lHX5v8AgQqhJp0nlkOchv4RXTGo9HfU4504pNH5p/td/sr6p+z94o/tfQYprnwtqUx/s27cZNs5yfs8h/vAZ2n+ID1Bx43X60fFD4feHPiH4OuvBHirT1uLDUlEU8ZAG30dTj5WB5B7EA1+Zvx/+CPiT4BfEe78Da+rSQj97pt9twt3bkna49DwQw7MCPQ191k+ZLGUvZ1H76/Fd/XufD5vljwk/a017j/B9vTscTRRRXtHiBToopJpFhhjZ3dgqqoyST0AFNr3X9hD4Np4/wDiYfHOt2e/TPDrLIgdflku2z5QOey4Ln0IXPBrHEV4YajKpLZG+GoTxNeNKO7Po/8AZG+AUfwa+HMT3kGNe1LZcau5HMZwdkI9kB5/2ix6Yr2aw0+e52GSfLMOWz27/wCFRWNsbb53QLG3BbHGe1a9lZNFIXDAbxn/AHR/nNfmuOxNStVlOT1Z+iYPDRoQVOK0RLDE6yRpjADYxj0BFakEZjVSUGO+D1qKGzHys8gLZJJxWpY6ZJcW+xOmecdcGvJlOx7EKbRLYp++IjiOG9K1dPiljkIdOcYJxVbTkW1lBlG0kYVh657/AFrobexDN5qpgY6hR1rkqTsdcIjrKBZQkkMgZVYEKCMHtk+nWr6WkVz8kaN5nUY6jjtTNDeB5RDFKjFRh9hGRW1ezLpNssog8y4lIW3gX70h9B7fyrhnOSkkdcKTqaGTcWs+o36aBHO3lABrnOMn0TI9f5V23hvTorCFI0UqB/AOBj2qr4R8JSx2Pn3yA3E7l7hh/ePYfTgfhXR2emqIHt5EKuo4c/xD1rixFdP3UzrhBxtykoj86NZ2Zg2MNtJp/wDZ4a7hhRMlfmIAwf8APP6VfsbCOPg8hR3NWLW2A1HevzYABxXn+1s9DRqyu0NNrdtbjKcAE7wfmFadn9mazFhewBo+7dPp9Pr0qSKze7crFHhcnIIqf+yQpVF5AGGOOtZqomZ1aDaujlte8G6l4Mu38S+DofNsrhg2oaYAQGI5LIOxx271JoAsWmjurEZ0/UxvjYjAR+6kdj2/KuvbTpdNiKNueIKMqW+7/wDW9+1ctqdrL4evptARAtrqJM9gVA+WcfeUfX+tddOr7aNnv37r/NfkTG9T3JrXv/XYx/GnhO1s5/7Qt4mGAQy5z8ncfUZB+lcT4j0d03bkDKOQV9DXqdqL+/0kaldzKwJ2sFHKsOM/TP8AOub1rQo9PmcXDeXGoLKWPy4HUA+xx+BFdmGrtO0uh5lSEuble5454wglezGjwxqZLptgUHoO5+lU72F7eFYtuAvFdWdJ/tHW7nWmzsBMduHHG0dx9ag1PSY5XCrAF4xknr617kaqSUTKpBpcqOG1OzfyvMfIXI6nknIqC402aWdmKEcDOeK6vV9EU6fKxBLAfIB7Yps2nxw25hlUbm4JPYV0xrWimjmlQ6vY4HVtPLqLcA7mf5c8dOc/pXkX7aX7ONn8e/hS8Wm2i/8ACQaXE11os2ACzY+eAn0kAx7MFJ6V9A63pI8sBF5GSjD+GsDU1kh0UXMz7I41OQowXPTr6ZrvwmJnRqQqQeqZjiMHTxGGdOS0Z+NM8E9rO9tcwtHJG5WSN1wysDggg9DTK+i/+CivwEm+G/xKi+JulWezTPFTPJcCNcLDejmQf8DBD89Tv9K+dK/TsNXhiaEakdmflmKw88JiJUpdH/TAAsQoHJPFfpB+y78JY/hF8HdJ8NXFqEvp4vtWq8cm4kALA/7o2p/wCviX9lD4eD4lfHbQ9GuIPMtLWf7begjI8uLDAH2Z9in/AHq/R6ztZbf/AFSny92CvXbXgcQYmyjRT83+h7/D+GvzVn6L9f0NOw06IxBHQBcfdxWnBYNbRJtkyDgAHt+NVrPLBQjKyjgEGtu0iEUOHB6Dgjoa+ErVJNn2dCHNuFnaSSAOT0PT1rb0+y8tE8vqT6cHpVWyhyw8pBtPcVowmO3CyPJwCMgdc/T+lcVSTZ6lOJp2dnAw8u4t1ZmGDxV29t/LhEFm8iSTkRxqp6ep5HAAyarWU17cSBYrJhuXcTIQAPzPX8Kt+HYb+5uTqTomJTiISSE7I+PQdzzx7elckuZa3OylFxd2a0PhLRlskji0xDtAC+X8rHt94c5rV0fwwmn3cV5Fas8rKVcyTNIQuegLHjFRQf2gywwItuzFwcgnAA5Patq1OozS+SWiTKY3pknoCRzwOorzalSpazZ2UoPl33NS2v7SztY3MqtvOFRVO5mz0x36Vct7bWtRycrajhhgBmPsfT/69R6NptrDtuoA2/jzHkO4ke+a6CzgV084IevzZxXmVKqi9DaK9nH3QtdDvLlVP2+dWA6Kq4B/Kri6JrKL5cGqjkZXzYB0+oxV/T0IiAVhg9/Q1qJbyeUTJGRx25z71wyrzUjVKThqY1l59s2L2wddoGJYRvX8e9acWJYxPGRIucK684P+fWpY7RVy0cZGOppZ9HKJ59vM6XDj5ZV4wO+cdevej2il5DSj10I5JUnhW3uxht2QWPofY1W1fQLHxJ4WudOtTFFqEEgm06dB8yOvTHoPWpLvR9Zl2vBfxMp4PmqQc/hUB0bxXGqwW9zaQjIBaMFT9enNbQnytNSV0YOhJT51JHK+DPEC6pPdadrJMFz5jLPEV5WdeG49GGD9cCp/F2gfbprDTJ13RXEp3MRwSoyPzrV8T/De48PWS+OTP9oHnAaqIoz8qHgP1ydpwfStGfRU8R6CbaK4K3cIElrKT8pYDKsPYj9DXa6sOdVIbP8AB7F4ihRmlVh6P1PO9d8HrA7Q+Rjb0YevtXPaxoEMUKl0yQpyB2r0+dJta06HUDCE81Myqo5Vxww/OuevdB+V0dd2DnOOorsoYmUbc3Q8mpTsjze90tWs5oWiJPlnZTNU8LwSShGBOenHeuyvdDiRZndSBtIGB7dqreKLKGPTTbwIplliJBH8I7k+lelHE8zSRjGk2tTy3X0iiXMrhbOF8SSbeZG/uj2rk9T02416X7XcW5t7JCDHDJ96Zh0JA6D2rukig1sLquoxqlrbFktbcZxkZHmH+8Sc4rm/FNy8jMkAwpbABr1qM3F8q3Mq8lBeh4l+1l8H7f40/BPW/BccYkv0hN1pOF+7dRAsgB/2uUJ9HNflg6PG5jkUqynDAjkGv2VvYCIcmPkjqe9fl9+2n8Mh8Lf2idd0u2t/Ls9SlGp2I24Hlz5ZgB6CTzFHstfdcN4ptSoN+a/J/ofn3EuG+CvbXZ/oevf8EyfBCsPEnxCuLbO5otOtZSOn/LSUfrDX2HpUBSUO5bg8HPX3rxL9gTw2vh79nLR7gxqsmp3VxezAjkkylFP/AHxGhr3iyiZXL5OGOcHtXl5xX9rjKnlp92h6eU0vZYKmvK/36l+2sUYCRIwGHdeuPT3rQhtZHVY5CSWPDYwKp280Djy3kVCBwuea0rA3APlRIE54aUf0/wAcV8xUufS0VdFywhaJFhijLO33ST29/QVr6fYRhmlnIeUcGQj07D0FVNOka3hbew3lssxH3q0LBZbmbCPsX/Z5ya5JPc70o9DQeIJbECQDzSsYcn7oPU/lWzpdmI4wkK4VQAMdMViT20irHHvOPPj5J4+8O1b+nymFdoZQGHr196461+TQ2hKCWqNe2iWJkYvzu79uta9jBJJN5uSv7w5XGD1wP0FY1rPteNy+7a/Ge3Bra0q7iMZZTyJGOCfc15VS9jshOOyN/S4ljJjYcHkgkcZ5ra0yxYfKJh+J/wA5rF06YSqJIVBPoBXSaM6yIF53d8jpXl1ro6opNWRo2dhIgPkupOMMDxx7GtuAtNHhM4Ujcu3kVmW0iRsHjfLDg59PetOGSOePeEZJBlSy8EfX1/HNcTi2dNNRcXFkkUKs2Z93smSAaVLSNGHlKRxgPjP86VLlynkzMpYY4XuPWrEZ86TZbAgED5l5/wD11LujKpDlYyxsQtudsuGYZweMf54q/Z2FtdxNhvnTse/tVZfOtji4hO0sSWHIH4Vet7ZmKmJQy8bWXB/WocvMxlexdttPgGmXNndhpLe5jKTo6/wng8GvL7e3uvD9/c+DPtDlrYOLCZ+rQtnb9cHP6elen+RNHiMTtt5Gwr69s1X8U+CBr1rFq9tpLLNar+7kRcMU6lfpXRhsRGm+Wez/ADKwslGfI9VI4LR7Nbnw9awWmdyxlZgVwytk7gfTnNVdW0QwKI4+B/Oup0jT9SXTdQ/0WSOSO8Em1Y+NrKDn881AltFcFbi4bABOVI5PH+fzrsVZRqM5MbSqUqsotWOH1TR1ttPn3DJYFI1OPmJ7VxHj3T7jw9pFxMzF7mfEUZzkAtj88da9R1N7QazjYfLij3BG4+b1689q8t+MGr27CGMTCOQ3AaMdc9snPtXs4GUp1UvmcfvRtBddWcFqtodOsl0uyJYooDFj1P8A+uuP1QiGUtMd+DyAK6XxN4l06CcxQztJLyXSFS5/TgVx+s6jqVwv+h6BJy3DXDBAPqOtfR0IT3f+RySpyauUNUu/tDfIvsNor4w/4KueBFl0vwr8TbeDBhnm0u6kx1DDzYh+Gyb86+wLi38SeYGga0fd1ARhtrw/9v8A8Lax4l/Zh11rjSELabLBfRypJnaUmVWODz9x3r6XKJqhjabTW9vv0PnM4oTr4GonrZX+7X9Dd/Zu0f8Asf4JeEtLVcNH4fs2YngK7RKzfqTXpccO5QWlJBHAyB/KuT+GUMVp4H0aGFRtTSrdR06CJeK6y1SXZ8pXOMciuTGTcqspLq2aYaPLRjFdEjQtYIVRIlYJnnArRsZMplBkg85FUNPkSJQ8jbnIwD7e1XbQGJsJwM8HHSvFqXuevSaS0NWyhUBGdhnGRmtu38hkEiNtx1INYFqXVgd/b15IrUtJ1yUKE+lcc1JnbTaW5oSXMkii3RFKOQodiML349a0LSULghRjOBhcfhWYY/tAAif5ieB7irIv2s4/IuEAZR6d/WsZRujW1zbt74QKNzgepz09hWlpWrBgIEXZgYDE5rhrzxDDBlpJgMcgfhU2meLopJ/LjfccdTWE8NKUblwbier6TeXUc6xwIGyuS7N93n0711ulwX8x89btEPcxrg/XkkfpXmvhXXocqzy5J4Yk16FoOoQyIjRyZ46betePWpcstT0KVVONkb9rYW2U+0RmQlhlpGJz9e1bllo9kCJFgJB4aOItt+uBxWHa3G65WReeep6iujs9ZkKBXQAD26VhGKtoaxnO+4XOi2tugu7TUWSZSfLEkpYHPYgngcCl0zWo7mAmeWOKRCVkjMi8H+ZFTRanp1+3kCWJyRygYMR/hUX9l29xMHto1hfOFkjABH19fpXDWgoq7OmThJWlubWiXMOoSqsUyMBn5dw5PpitxbCKG4Ei26rJxtKggGsvwutudizqrPgrLGygjOf8/nXZaPptrdzRLFB5LKwBKnHP4cHj2ryK8/ZyOWrKNNamz4D+GP8Abd0lzKi7M5kCknHuc13l54StbWyktLWzThSrHb1FdR8OvDttY+HEZ2EodcMwXB/H1rcl8N27QF0iDKcck9BSpYLE4mCqt77HzFfOOTEuK2TPm/4f6FdQ3uqx32ySOGYW/llckgZIb8jWd48+F+lJp0+vaSAuwEyQt1FdgkWv+HNZ1CKDQUuonlIlhtJiJQEJU4B4Jxg4BrG1/wAWRXsI02PwrrCCRslHssb1HXv69zXdVo11iuePl/wT7urTqZliObRxdtmuyv1Pm3xtNFpFvPd3q4Kjhc8sc8AV5Tq/hh9Yupde15POml/1cT/diTsAK9j+KGg6lc+KXk1zTzbwxsXjs1YE89NxFed+KJjayP5CDOej5NfU4Ks4wXK9X/VjwcXS+r13G+vkef3+i2unQstvbLEueBGuP5Vg6tpx+xySLyM85HIrrNZ/ektPNgnoOtc9qaROv2ZHPTI5r3aU5XuzzZxSvqcpcWkSFlCkEj0rzn9orwydc+BnjPR2Td9o8L36xZ6BxA5U+/zAGvUb24iWF4ygDDgE8VyXj2JLnwbrFrdZZJdMuEbnsY2FevhJuFWL80eVi4wlRce6ZwnwxIuPA+jTxMSjaTbMucd41rpo5vIDbpNuV7nr1rh/2cNX/tv4HeD9Tz/rPDdmJGHd1hVW/wDHga7eOSP7S8jMOPlXPrjt+YrtxcXGrJdn+pw4a0qcWuyNDT5pZQqrHgBvvv8A0Fa4QhQUfkL8pPUE+tZWmrHcMsZYKWbPXA/z1rbdESSONdoBYHPp1A/WvJqp3uerRtEu2kQhARSzc8571bgcoSu3B9hUNpHvU7myQw5HrmrMCSsSGBBEnLe2BXE7M7VLqWYLoxKlxHkBQCFJqHUL9rrMpHzHnIGMVJFADCoduAoOR9KbJakQkIMnkde1SrXNqc4rc4jxXrU9uNvJJ+tU9C1y5jkj8u5Llidyf3fTnv1rqdV8LpqC+Y65O3JGKp6R4LWG7Hl2+CD3FdiqUfZ2ZreMldHdeA76aURs+Qcg4zXrGiXM4CtBKwK46DivPPBOiJG8UbDk43DGK9D0aGdEMUaqcN1Jx3r5rHyjKehth7rU6ayu7q3bz1ulL8ZVl4/DFb9kyFFluJPNOBwxwPy6Vy0AYEFrZsj+JfmH+NaFoSZNkU2W7jofyrxnOaemh6kJqK2Ona9iuF2vGRg5G0Y2n2xT9MjeS6iFrczBnJyT8wx+IrLsVY4L92xyPat7RIJ3vC/llVUYXPbOOa55VG1qTeW5sWWn6rDIl3aXkQlU4+e2+99fm/pXb+CtY8Vi5+zajZ6dcLJjMisyMD+INctZBLWVH8zcB/Ce59wa6XTNVV5kup52R1baI4lGAO1eXiVKcbNXMpSU1aSufRfgXxLHHoVuLrSp41UfM6FXC/UA5/StzUPFdmmjXU9hcwviNjjdkZA9R0rzb4aeN7G4thp1xOwZuEYnqad458RaJpTn7bDDKZFICGMPI/0qsFj6lKnGklrsfKSypYnMHFRerura3Of8G6zrOr+HH8VuIZpILqWQpCu1jycj34xTtKjbWLeTxZcIpkvnwiA58mNTgD8643wi9zpzXHh21lmtIGmeQ+cMSvGxzggH/D61oeJdX/4RSyCJeSJHLFmOOIgbWx368V14lQk3Bbvb03PusThI0q81BpXd1p9ne36nj/x+vbW58Z3kqOm2MhfvYBI7mvEPFQj3NK6sQSSQATgfhXqnjt9Tv7uW8uU8wk5IcDj64rzHxZrRMTrJZOpxgoq5Ar28tpuMUlqeLi2pTbjqjhNYkEgbyonYBc424/niuTvr25jlJjtl+sj/AOGa67UdUtwQskyhjn7wwfpzXNaqIJmZlXHoOK+poK3Q8ms9NjA1SFzItxKyKJB8wVM/qa5n4gCNfBusTXDybYdMuGY7tvAjY9sV2DAXgNjMgI6qw7V51+0dqa+FfgN421pZMfZ/C1+0bdt/2dwo/wC+iB+Nerhda0Y92l+J52JbVKU+lmeGfsB+Ln1n9mfR4zJvk066uLBj/tCUuqn6JIv4V7mI0toySRuYZZvU+v618df8EuvHKm28T/DW5nA2Sw6nZx45JI8qVvwxF+dfX0F0s8IJ2o3TBz29q93NqPs8bNed/v1PDyqr7bAU3fpb7tDWsWXAUMQF+7g/hWxauZtsrwAjG1sn865+1ZlCoZjg8Ekc1s2UglVVSTcMevp2r52stT6CjK8TW0t5JrdCCQGQHf68VsWyhiwVRu8sZGD71j6NOtu4siCytymf4cds+laqSFHWRTyOC2P4T/PnBrgnvY7YJFuFFMUKgjJALfgP8cVPBap5jIRnI6ioNJkeeZkhC4VArsf4iCw49q1YowDhjkg9q55e6y2itDpayZDKMb+hGKuafpUMUoxETz0CZzU8KL5iyYBGMNn9P8+9adtbspwVwRxXJUqtKxvBFnQIxaS7ZUdcsAsjLwB6e3pzXWWMjKMRA5J4wK5yKMSIIZiQGHzf5FaelXksF4LWU7gkW5XAwW57j8K8uqufU64y6nZWIiaJTLJtIXgnuPar9rBazsFkfKg9utYNpeAp5xC5xwD6VvaZdu6/6xTu459OwrypwaOlVLM1bK0t7CRWuQ7I7fu3cEgc9CTxn/Gug0kM026MYGMEA8AVh29wkyiFyrEjk9BV1XudJhMltMpQ8sMnZjPX61zSTZvdNXR0ysCFjLHf1KqQMVowO8Kqk02BgliTgCuZ0uXVrqXIlijXGd2wn8smtuy0W4ukZri6aWNedzcKvvjufrUSXRsxbSWrNOy8Tajb273VnfFIYlLeeVwwAHatDwt4t1CRP7Uv28+WZflaRtxx/QVz+rWEl9HBaQu0Vru/fEdXHce5P6VPG3kM00cJG0bY0/ur/n+VL2UeXRaspV/Y0morV/l/wTMk+IbTfE28ks5dr2touUYnBJx/jVjU/EEPi2y88XIEhBO0nlGrhvA7f234w1/XrpCEa42pvGQQvyjFUNce+8Oa5I9lftFFduTDI3Kg5+6fTvivU+rw9oodYpfkb47ETryjG9mkvyNPXbhVhaKYES5Kv83GeleaeJGjEjrOwwTweDmtvxJrutWd2L7WrNpRt6wLlZCM4IHc1zOsarY61A2oWJGzd9zbgq3cEHoa9XC0JRs+h4mITg79DgvEuPtDeegdSwyGHaub1XTywaSyvTGT1jfkfSut15Cz+a4HzE5HWuXv1MDsztlSDhSOK+iot2SPNqcyMWEzRXSm9t5GVT8xDbhj6Dp+VeE/8FJfGtv4Y/ZO8Sx2lyqyatLbWEAB6751Zx/37STivfHnFtMJEwcjI2iviL/gsX4+gj03wj8MrWRTJc3E2q3ijghVXyos+xLzf9817+T0fb5jSVtnf7tf0PJziuqGVVXs7W+/T9T5h/ZA+JA+GHx/0LWbm48u0vZjp98d2B5c3ygk+ivsY/7tfpJaSl7nqihxkE46j/P6V+R6sysGUkEHII7V+lH7L3xVj+L/AMHdH8Vy3Ia+ij+zaqCcn7TGNrk+7DD/AEcV9RxBhnLlrL0f6fqfKcPYqzlRfqv1PXIPlKuzbvU54HvWtYyyZAWMc9z0rn7a93xks/GDtx7VqWV9lNocHI49q+LrQl1PtKU00dJBCsiBjcBGBBQ9cGrb6mZ7BzcoYnVlDAdCMjJB+lZlheloRv646DirE8+y1e7jI4QB0cds/wBOa4HDXU9CnPVI6a0WJo18lxjojR9F/KtK2mZGEbKJAD94feH4Vg2rxPKZTGuGHDAY/Kr0TRqplIkx/vn/AB/zmuWcNTbmR0EEtsvzIVYBvuE8n6jrWhb3LB3ZyGAwF55xjP8An6Vz1m1q8axtaqTgDDLnP51o2kNuG224ML93iAwR6EdDXFUpJG0JwWiNy1uU25diSR0zVi3tJZpvtNnc+S+CuQmQw9wfesi3vJIZBaXqKJOTHIjHbIPb3HpW3ZSyswVsdcgAda45wcdjTnkpG74bm+1afFezKcugPXgfSuhspS2JFyFx8pUDJNcR4evJtLuDpd3JkoC0TY+8hPTr2PH5V1mnzzPtdkIXjYoXkCvPr0rSZ0Ru9To7IshDuCCDznnn6GtyxkgvoyrOw2L0fI/LNYFrPATtQ5Axhc8/jXRaFC12SSV24O926AV50lrdm8aijHU2vCcMN9D5yyfKvDscjocHrWidda8Pk2WFsY3wSDzO4/p/n6chqHiCytbxtBsb2OO1Zf8ASJ92Pqqjpk4/nUfiL4jeHfCunLNeuFUJi2tUwzN7Y/mfetIYWc5WitWacqaTS1e3l/wTuE1h7l/NuXCoD8o7YA/xrnfil4+fR9GeysGIvrtfKtABzljjPH+elcIfF3xB8X+XcWERsbZuUjX5SB+Kk/oKks7CaCJdf1q9e4uCxiiaU5CEkjIJ69/SumGDhRmpTadugKEKb5m726I63wjo0Ph/wbGkbkyMd0jZ5c+345NZfiCW0uLbFwA6NxtZeAan1DX4odK+zQSfcjBIzwAK47Vdc82NgtyT/dBq6VOpOfM2cs6ilJze7I728GoaVPohkJuLRx9mBOfl6qfz4/CuI8RXYhuF8TwWoFrOPLvox/yyccb/AOh/A1o+IDd223XLBWM9svzpn/Wx55GfXuPesWTxAkk7FpUa11FcsrL8oYj37EfrXu4enyq62/q/+Yk6dVe8tP6/4cy/FMN/x5CpsbDK6fNn3zXIa09yoPmufRgoAFax1WTw1qNx4beULGXL2Ickgxnqo+h7e9ZGszs8LXLDJPZh7161ODhY8evyJ2i2YpkUKUO7I6Emvyn/AG9viuPi5+094h1S1ufMsdJlGk6eQ2RsgyrkHuDKZWHswr9Ef2uvjND8CPgNr3jvzli1DyPsujIx5e7lG2Mgd9vLkekZr8i5JHmkaWVyzMSWZjkknvX3PC2Fd54h+i/N/ofDcVYxcsMNF/3n+n6iV75+wL8aV8AfEtvh/rV75emeJCscRZvlivB/qz/wPJT3JT0rwOnQzTW8yXFvKySRsGR0OCpHIIPY19XiKMcRRlTl1Pk8NXnhq8akeh+slvcNbIYXOSR8vvzW1o7W6xbBKWYc9c14T+yv8fIPjr8N7V7+4U69pRSDWIu7sB8s2PRwMn/aDDsK9m0y4EQLQn/eVuoPpX55i8NOjNwmtUfo2GxFOtTjUhqmdTbMHVmD9+VzWjbobiAlJTt288A1zttdlUyD1561s2eoxpGYgCARxmvKqQcXoerRnzI09A1Jmt/skpJMDGIc9h0J/DFbS34MbW+Pmccc9B3rkLe9httSuCsgyBGWVTnLHOB9eK3LO5V2y4w5Xn2HpmuerT1udMZOzZ0lhKGUFmB6da1LGffIctg7eCa5mwu2Y7GbgdfStWO6MSnDcqMhs1xTp62KhM6SO2S9j+ySE+oc9VI7itHw9dMlwbC+BWZFJR8Y8wDvWPpN3vRTtye56c+tbEaG+AWScJIpykg7GuKrTdrG1Oolvsa0tmLtFcMdyt+7ZSMofUVr6RqGoW88NhdxbxKdsdzGoAzj+Idu/tXPWWuGyuks9SQIzN99fuMPXPauvjtLGawAa5beUyqw4JBx1HP49fpmuCrTlHSS0OynOTaT2Oi0LTpLogPLuYHJYnAyO9bY1eGDTvs0MqRW6jNxc7unt9ewHr+nm7Hxatm0A1xoIS4DNsQlvXPf8OKp+MPEsnhi0ttJ0931HUZD/ocUoG1M9GK9v5nnkAGsI4P2k0r3f9bnVShC127/ANdehv8Aj3xtYWsC2dnGVMjYtLdRiSc9mbHKr6DqcVX8L+Bk3L4h8WSvcXJUeVDI2VTHQkfyHQfXmqfgPwo2kSS+KPGV79s1adN24r8sPfavTnHfHTpW3caok6ExYGPvDccD866ZONNezpbdX3/4H5k1sQkuWD9TXvNajs7aaQNs/dEKFHciqX/CQWuo2SRlw0VvHkMOhcj+g/nWFqWutBDJJkYj6qDyT/8Ar4rCXWBpjCy52um/jgBj94Y+tKnheZX6nFCtJJm1c+IE854IX4KkLk9DWLHq0W50IJOOeeOKypdYIkJHKsxDAjmsZtYEF2VLgAt8qseDmu+nhUYuq2bV14nn8xohMFByrfN1rkNHMZ1C5t7seZazM7WeW4QhvmUficipdS1NrWQyE9MkhRisi/upNOa0aZCqpKVkI7FwRn8yK9GjSUVZdRxqygtxPGmkl5Q4aS4gU7ly37yE+qnvWEt5rMKNcyKt5bDhZAQHH4dzXQ3t7eXFuJCnIOCMV4R+3V+0xafs0/B+bV7CSNPEusq9poFtgHMmPmnZe6xghs92KKetejhKVXEVI0Yq7bt/X6nHi61KhSlWquySv/XqfHX/AAVD/aKg+KHxWg+Ffhi/Mmj+FCy3TKflmv2GJPr5YxH7N5nrXy5Ul1dXN9dSXt7cPLNNIXllkYszsTksSeSSec1HX6phMNTweGjRhsv6bPx/F4meMxMq0ur/AOGQUUUV0nMdh8DfjH4h+B3xBtPG2hkyRqfL1CzLYW5gJG5D6HgEHsQDz0r9FvAPxC8O+OvC1j428J3/ANptNQiDRbOp9VYfwspyCOxBFflzXq37L37S2ufAnxILK8upJdAvpR9utgN3kscDzkHqB1A+8BjqBXj5rlqxcfaQ+Jfiu3+R7eT5ksJU9nUfuP8AB9/TuforDdarMMxtFCCf4vmIrVslfZm61Kc4QZAYKP06Vxnhjxf/AGvo1v4j01YNR0+6iEtteWMwZZEPcD/JHSty08Y6Ay/vbwLuOCkikMvtjFfFzp1FpY+5jVklePU344bayuV1O3Jyo2zZ5+XPXPqOa6a2lQgTQXjAsv3XwymuRstQ065gzBexyK392QH862PDJFxAIUnz5R2ttbsOh/KuKtF216HVSq1OWzOg0zUDBJ5OpIFYkYfqj/T0rdinhZSpO7eMHnmsG3IeN7O4jLJjqR1qWyvZrO5SEFpYWICZI3g9ce9cMoczudEXzHa+H7wMdksilg2MA/ka6LT9lw4JkUAuRuDc1w9ncTl18jSTKWwFSRwv9Kv3KX2lSw31wq2isAJFtjhtpPJOfT1rllSTlubxV0k2dtcRxXWNKiOJOrspGEHufX/PXFbek6gNLjGn2Wc4xJKSAcentXFS+JNG0C2HnajbwwoN7mSccn8Tyawbj4j6/wCLX+z+CLdbe0X5X1K4Xg/7o/z+FYfU51l2XnsdHvOPKtF5nfeOPiA9ikWiaEvmXDSgoh5bIB5I9M9PpTvBumwaXu8R6pdfatQlBMkkjE7P9kZ7+p/DpxXFaVa2/hrUIdTe6mupZcrdXUxyzMemPQZrSPiG4e7a3gYqhYMF444Gf1/nSlh1GHJDbq+45V+WnywO0l8TtNMJC5QMp6GmxayfLyjkjvJurlYNVMU4wSV5BBNRX/iNYE8mFsgdM/zrP6sr2RnHna5jZ1HUZHeFGkGJJ8EnpgDPrWbrOo+Y++H5xE2SqnnGDmue1TxT57xJl1EZYgA4z8oGf1qCLV5hh4nJ3HJ3GuqFBxRrCULq5dn10blSJwwLdj2+tUL2+dr8NtygPWsjWr8nUUlji2GT5XA7nrml1W8YSq5cNlcNx0rpjStbzMJ6pk+rTzLwZM75Fxj0JFJ4mnLWb3IOVidHPPYEHFZ+v3EafZjE+VZ1JwenU1k+MfEumeHvBd/4h8R6tDZWNnavLd3Ny21I0A5Yk10UoNuNjOUlSvfpqP8AiR8VfCfwy8H6n4/8b6mtnpen2xmlmY8+gVR/EzEgKOpLAV+SH7Tn7RHiv9pf4p3fxA8Qu8Vqo8jRtNL5WytQTtQerHJZj3YnoMAdr+23+2Rq37SviePw74aMln4Q0iT/AIl1qfla8kAwbmUepGQqn7oJ7k14PX6DkeTrAw9rUXvv8F29e/3H5vn+cvH1PY0n7i/F/wCS6feFFFFfQnzYUUUUAFFFFAHr/wCy7+1h4k+AeqjRdVWXUfDN1Lm7sN2XtyessOeAfVeA3sea+9/AnjnwT8Q/DcHirwjqtvqNhcpmKaMA4OOVIIyrDupwR3r8qa7H4OfHT4g/A/Xv7Y8GaqRDKR9t06YloLlfRl7H0YYI9eorxcyyinjP3lPSf4P/AIPmezl2bTwtqdTWH4r/AIHkfp2LXRr9zHHoCTHcclVCgH6//rrQ07wolu3m6fdSWkhxgW0pAH1PevI/2bv2s/hj8braPT7C7XStbSPMuiXsw3sQOTE3AlHU8c+qjv7DZaq027aTgepr4vEUsTh5unJNNdz7fDYiFamp05XTNe2tfGenREw6rBcDbnbdRnI/Feabp+p+Lru4+1WljbsYfkBZyVDd/wClNGsxNYuyHlVJLHINRaDqckNskULMAwJOTwTn9K5Fz2bcV9x3+00OitB451MLBeeJIrNN33LIYYAf7R5H5mrUPgzS2mebWNTvrvnP+kXOQf0rLttWmjPmLJ827jJ/Ora+JBPGxZ2O1eWJ61lJ1l8Oi8tDaFZ2sTQeHPC7eIobeC2JjSMyToXyrAHAH512dnrNlpsa+VBHHFnEMQUBV98eleceHtZM2rXlw8p4YRKR6AZ/rW4NTjAJkcFVyAp7e386ivTk2k3sjVVJzep0t5q4uLScFgAFLKB1yOQfzqOK6+07ZJpfvgMpU96wF1QvZy5zyhywPWq48TbLUIr/AHIx82OaxjRk9jWEqcV7x1P9sm3YxTTBgOjDjNQ6jq9q8WXl25PUd65G51qaYB5CcjnPtSPqDSIFLAhTwPStPq+upTxWlktDaub6OW6RYcfcb5j68cVBFrFwJtjAkA8+9Zwui1yhyRySOeCMdacdcVsxm3w2eWBq/ZvZIzclK13YnvL8S3RV3P7sb9o7Z4H9amvLuK5C8kEAdKz5ZIzeNOFyTGNy+gzx/M15H+0r+2l8H/2eNOa11O+/tPxAY/3Hh6wmBlz2aVuRCvTlvmI5Cmt6WGrYmooUotsnE16WDoSnVklHz/rc9R+Inj3wZ8NfCb+NvH/iC30zTLElp7i5fgfKcKo6sx6BQCSegr81/wBs39uPxX+0xqzeF/Don0rwdazZtdNL4kvWB4muMHBPdUGVX3PNcL+0H+0z8Uv2kvE39uePdW22kDn+ztHtSVtrNT/dXPLEdXOWPrjAHntfc5RkcMClUq6z/Benn5/cfnOdcQTzB+yo+7D8Zevl5feFFFFfQHzQUUUUAFFFFABRRRQAUUUUAPt7i4tJ0urWd4pY2DRyRsQysOhBHQ19C/Az/gob8Rvh+sOhfEu0bxJpi4X7S0my9iX/AHzxL9G5P96vneisMRhaGKhy1Y3R0YbF4jCT56UrM/Tj4W/tLfCH43RR6f4G8XwC4kTMunXx8m6X1URscv7lSwHrXoEOoPC4UR4AyCPQ1+REckkMiyxSMrKcqynBB9RXqvw1/bT/AGhfhmEtbLxq2q2aY/0LXU+0rgdAHJEijHGA4FfO4jh1rWhL5P8Az/4B9Jh+JFJKOIj81/k/8z9K4bqdjjLEY6cc1pR3ixptMbYI546V8b+CP+CpPh+4SO3+JHwvurZwMPd6JdrKD7iOTaR/32a9Z8Pft6/szeKLdYIPiMNOnkABi1Sxlh2Z45baU4/3q8WtlWOpP3qb+Wv5H0GEzTLqy0qpeun52PX9Cv0S6u41xuF0WGeeCBW7DeNKoRXII615npvxj+DGpXUV14Z+LPhy6SUBJEt9bgZh6EqHyPyrs9O8VeHHjEsPiGydP7yXaEE/UGuStRne7i/uPThUhN+7JNep0Go3hSAoDj5TnB61TWd1iA3Y44JrL1Dxb4faMtceIbKNSSNz3SAYA56muf1345fBrw+pXXfi14ctcdVn1uBT+A3ZP0FZ06FR2UYsmrXhFXckvmdmb1Eicls9sYpY9SILNEox25rw/wAUft5/st+FYXik+JK6lMuf3Ol2E0xP0faE/wDHq8q8cf8ABVnw5aQPa/DP4W3lzIeEvNbu1iUH18uPeT/32K7aWVY6t8NN/PT8ziq5zgcP8VVfLX8rn2ba3Uk1x8wBGw9K4D4z/tO/Az4Gb38eeObZLsJldJs2867f0HlIcrnsX2r71+ffxK/bq/aT+JYltZ/Hb6NZyjDWXh9Tarj0LgmQjtgvj2ryGWaW4laeeVnd2Jd3bJYnqSe9evheGXzc1eWnZf5/8A8bGcWQcOXDwu+8v8l/mfT/AO0F/wAFPPif8Q1uPDvwhsW8K6VJlDe+YH1CZf8AfHEP0TLDs9fMV3d3V/dSX19cyTTTOXlmlcszsTkkk8kk96jor6XDYTDYOHLRjZf1uz5PF47F46pz15uT/Bei6BRRRXScgUUUUAFFFFAH/9k=;" vertex="1" parent="1">
          <mxGeometry x="15" y="190" width="40" height="40" as="geometry" />
        </mxCell>
        <mxCell id="gmB4WwqZMORq6ps0vpDz-13" value="" style="endArrow=classic;html=1;rounded=0;" edge="1" parent="1">
          <mxGeometry width="50" height="50" relative="1" as="geometry">
            <mxPoint x="55" y="99.83" as="sourcePoint" />
            <mxPoint x="85" y="99.83" as="targetPoint" />
          </mxGeometry>
        </mxCell>
        <mxCell id="gmB4WwqZMORq6ps0vpDz-14" value="" style="endArrow=classic;html=1;rounded=0;" edge="1" parent="1">
          <mxGeometry width="50" height="50" relative="1" as="geometry">
            <mxPoint x="55" y="209.82999999999998" as="sourcePoint" />
            <mxPoint x="85" y="209.82999999999998" as="targetPoint" />
          </mxGeometry>
        </mxCell>
        <mxCell id="gmB4WwqZMORq6ps0vpDz-16" value="&lt;font style=&quot;font-size: 10px;&quot;&gt;数据增强&lt;/font&gt;" style="rounded=1;whiteSpace=wrap;html=1;" vertex="1" parent="1">
          <mxGeometry x="85" y="70" width="20" height="60" as="geometry" />
        </mxCell>
        <mxCell id="gmB4WwqZMORq6ps0vpDz-17" value="&lt;font style=&quot;font-size: 10px;&quot;&gt;数据增强&lt;/font&gt;" style="rounded=1;whiteSpace=wrap;html=1;" vertex="1" parent="1">
          <mxGeometry x="85" y="180" width="20" height="60" as="geometry" />
        </mxCell>
        <mxCell id="gmB4WwqZMORq6ps0vpDz-39" value="&lt;div style=&quot;line-height: 0%;&quot;&gt;&lt;br&gt;&lt;/div&gt;" style="verticalLabelPosition=bottom;verticalAlign=top;html=1;shape=mxgraph.basic.rect;fillColor2=none;strokeWidth=1;size=20;indent=5;fillColor=#dae8fc;strokeColor=#000000;align=center;" vertex="1" parent="1">
          <mxGeometry x="135" y="70" width="90" height="60" as="geometry" />
        </mxCell>
        <mxCell id="gmB4WwqZMORq6ps0vpDz-40" value="&lt;font style=&quot;font-weight: normal; font-size: 7px;&quot;&gt;（224×224×3）&lt;/font&gt;" style="text;strokeColor=none;fillColor=none;html=1;fontSize=24;fontStyle=1;verticalAlign=middle;align=center;fontFamily=Times New Roman;" vertex="1" parent="1">
          <mxGeometry x="12.5" y="110" width="45" height="20" as="geometry" />
        </mxCell>
        <mxCell id="gmB4WwqZMORq6ps0vpDz-41" value="&lt;font style=&quot;font-weight: normal; font-size: 7px;&quot;&gt;（224×224×3）&lt;/font&gt;" style="text;strokeColor=none;fillColor=none;html=1;fontSize=24;fontStyle=1;verticalAlign=middle;align=center;fontFamily=Times New Roman;" vertex="1" parent="1">
          <mxGeometry x="12.5" y="220" width="45" height="20" as="geometry" />
        </mxCell>
        <mxCell id="gmB4WwqZMORq6ps0vpDz-43" value="" style="verticalLabelPosition=bottom;verticalAlign=top;html=1;shape=mxgraph.basic.rect;fillColor2=none;strokeWidth=1;size=20;indent=5;fillColor=#dae8fc;strokeColor=#000000;noLabel=0;" vertex="1" parent="1">
          <mxGeometry x="135" y="180" width="90" height="60" as="geometry" />
        </mxCell>
        <mxCell id="gmB4WwqZMORq6ps0vpDz-44" style="edgeStyle=orthogonalEdgeStyle;rounded=0;orthogonalLoop=1;jettySize=auto;html=1;entryX=0.014;entryY=0.504;entryDx=0;entryDy=0;entryPerimeter=0;" edge="1" parent="1" source="gmB4WwqZMORq6ps0vpDz-16" target="gmB4WwqZMORq6ps0vpDz-39">
          <mxGeometry relative="1" as="geometry" />
        </mxCell>
        <mxCell id="gmB4WwqZMORq6ps0vpDz-45" style="edgeStyle=orthogonalEdgeStyle;rounded=0;orthogonalLoop=1;jettySize=auto;html=1;exitX=1;exitY=0.5;exitDx=0;exitDy=0;entryX=0.029;entryY=0.485;entryDx=0;entryDy=0;entryPerimeter=0;" edge="1" parent="1" source="gmB4WwqZMORq6ps0vpDz-17" target="gmB4WwqZMORq6ps0vpDz-43">
          <mxGeometry relative="1" as="geometry" />
        </mxCell>
        <mxCell id="gmB4WwqZMORq6ps0vpDz-109" style="rounded=0;orthogonalLoop=1;jettySize=auto;html=1;exitX=1;exitY=0.5;exitDx=0;exitDy=0;entryX=0;entryY=0.25;entryDx=0;entryDy=0;" edge="1" parent="1" source="gmB4WwqZMORq6ps0vpDz-46" target="gmB4WwqZMORq6ps0vpDz-58">
          <mxGeometry relative="1" as="geometry" />
        </mxCell>
        <mxCell id="gmB4WwqZMORq6ps0vpDz-46" value="&lt;font style=&quot;font-weight: normal; line-height: 100%; font-size: 10px;&quot;&gt;EfficientNet-B4&lt;/font&gt;" style="text;strokeColor=none;fillColor=none;html=1;fontSize=24;fontStyle=1;verticalAlign=bottom;align=center;spacing=2;spacingRight=0;labelPosition=center;verticalLabelPosition=middle;" vertex="1" parent="1">
          <mxGeometry x="130" y="93" width="100" height="20" as="geometry" />
        </mxCell>
        <mxCell id="gmB4WwqZMORq6ps0vpDz-49" value="&lt;font style=&quot;font-weight: normal; line-height: 100%; font-size: 10px;&quot;&gt;EfficientNet-B4&lt;/font&gt;" style="text;strokeColor=none;fillColor=none;html=1;fontSize=24;fontStyle=1;verticalAlign=bottom;align=center;spacing=2;spacingRight=0;labelPosition=center;verticalLabelPosition=middle;" vertex="1" parent="1">
          <mxGeometry x="130" y="202" width="100" height="20" as="geometry" />
        </mxCell>
        <mxCell id="gmB4WwqZMORq6ps0vpDz-51" value="&lt;font style=&quot;font-size: 10px;&quot;&gt;Backbone Network&lt;/font&gt;" style="text;html=1;align=center;verticalAlign=middle;whiteSpace=wrap;rounded=0;fontFamily=Garamond;" vertex="1" parent="1">
          <mxGeometry x="125" y="30" width="110" height="30" as="geometry" />
        </mxCell>
        <mxCell id="gmB4WwqZMORq6ps0vpDz-52" value="&lt;font style=&quot;font-weight: normal; font-size: 7px;&quot;&gt;（H×W×1792）&lt;/font&gt;" style="text;strokeColor=none;fillColor=none;html=1;fontSize=24;fontStyle=1;verticalAlign=middle;align=center;fontFamily=Times New Roman;" vertex="1" parent="1">
          <mxGeometry x="185" y="120" width="55" height="20" as="geometry" />
        </mxCell>
        <mxCell id="gmB4WwqZMORq6ps0vpDz-53" value="&lt;font style=&quot;font-weight: normal; font-size: 7px;&quot;&gt;（H×W×1792）&lt;/font&gt;" style="text;strokeColor=none;fillColor=none;html=1;fontSize=24;fontStyle=1;verticalAlign=middle;align=center;fontFamily=Times New Roman;" vertex="1" parent="1">
          <mxGeometry x="185" y="230" width="55" height="20" as="geometry" />
        </mxCell>
        <mxCell id="gmB4WwqZMORq6ps0vpDz-55" value="" style="rounded=1;whiteSpace=wrap;html=1;dashed=1;" vertex="1" parent="1">
          <mxGeometry x="342" y="51.5" width="308" height="237" as="geometry" />
        </mxCell>
        <mxCell id="gmB4WwqZMORq6ps0vpDz-57" value="&lt;font style=&quot;font-size: 10px;&quot;&gt;Feature Fusion Module&lt;/font&gt;" style="text;html=1;align=center;verticalAlign=middle;whiteSpace=wrap;rounded=0;fontFamily=Garamond;" vertex="1" parent="1">
          <mxGeometry x="375" y="30" width="110" height="30" as="geometry" />
        </mxCell>
        <mxCell id="gmB4WwqZMORq6ps0vpDz-111" style="rounded=0;orthogonalLoop=1;jettySize=auto;html=1;exitX=1;exitY=0.5;exitDx=0;exitDy=0;entryX=0;entryY=0.5;entryDx=0;entryDy=0;" edge="1" parent="1" source="gmB4WwqZMORq6ps0vpDz-58" target="gmB4WwqZMORq6ps0vpDz-76">
          <mxGeometry relative="1" as="geometry" />
        </mxCell>
        <mxCell id="gmB4WwqZMORq6ps0vpDz-58" value="" style="rounded=1;whiteSpace=wrap;html=1;dashed=1;fillStyle=auto;fillColor=#fff2cc;strokeColor=#d6b656;opacity=90;" vertex="1" parent="1">
          <mxGeometry x="290" y="83" width="110" height="167" as="geometry" />
        </mxCell>
        <mxCell id="gmB4WwqZMORq6ps0vpDz-59" value="&lt;font style=&quot;font-size: 10px;&quot;&gt;SE Fusion&lt;/font&gt;" style="text;html=1;align=center;verticalAlign=middle;whiteSpace=wrap;rounded=0;fontFamily=Garamond;" vertex="1" parent="1">
          <mxGeometry x="290" y="77.5" width="110" height="30" as="geometry" />
        </mxCell>
        <mxCell id="gmB4WwqZMORq6ps0vpDz-60" value="Avg Pool" style="rounded=0;whiteSpace=wrap;html=1;fillColor=light-dark(#FFFF00,#281D00);strokeColor=#000000;shadow=1;glass=0;opacity=70;shadowOpacity=50;" vertex="1" parent="1">
          <mxGeometry x="312.5" y="113" width="65" height="20" as="geometry" />
        </mxCell>
        <mxCell id="gmB4WwqZMORq6ps0vpDz-61" value="Conv 3584→112" style="rounded=0;whiteSpace=wrap;html=1;fillColor=#FF9933;strokeColor=#000000;shadow=1;opacity=70;shadowOpacity=50;" vertex="1" parent="1">
          <mxGeometry x="298" y="138" width="94" height="20" as="geometry" />
        </mxCell>
        <mxCell id="gmB4WwqZMORq6ps0vpDz-62" value="ReLU" style="rounded=0;whiteSpace=wrap;html=1;fillColor=light-dark(#FFCCFF,#281D00);strokeColor=#000000;shadow=1;glass=0;opacity=70;shadowOpacity=50;" vertex="1" parent="1">
          <mxGeometry x="320.5" y="163" width="49" height="20" as="geometry" />
        </mxCell>
        <mxCell id="gmB4WwqZMORq6ps0vpDz-64" value="Sigmoid" style="rounded=0;whiteSpace=wrap;html=1;fillColor=light-dark(#9999FF,#281D00);strokeColor=#000000;shadow=1;glass=0;opacity=70;shadowOpacity=50;" vertex="1" parent="1">
          <mxGeometry x="316.5" y="213" width="57" height="20" as="geometry" />
        </mxCell>
        <mxCell id="gmB4WwqZMORq6ps0vpDz-65" value="Conv 112→3584" style="rounded=0;whiteSpace=wrap;html=1;fillColor=#FF9933;strokeColor=#000000;shadow=1;opacity=70;shadowOpacity=50;" vertex="1" parent="1">
          <mxGeometry x="298" y="188" width="94" height="20" as="geometry" />
        </mxCell>
        <mxCell id="gmB4WwqZMORq6ps0vpDz-69" style="edgeStyle=orthogonalEdgeStyle;rounded=0;orthogonalLoop=1;jettySize=auto;html=1;exitX=0.5;exitY=1;exitDx=0;exitDy=0;entryX=0.5;entryY=0;entryDx=0;entryDy=0;jumpSize=0;endSize=4;" edge="1" parent="1" source="gmB4WwqZMORq6ps0vpDz-60" target="gmB4WwqZMORq6ps0vpDz-61">
          <mxGeometry relative="1" as="geometry" />
        </mxCell>
        <mxCell id="gmB4WwqZMORq6ps0vpDz-71" style="edgeStyle=orthogonalEdgeStyle;rounded=0;orthogonalLoop=1;jettySize=auto;html=1;exitX=0.5;exitY=1;exitDx=0;exitDy=0;entryX=0.5;entryY=0;entryDx=0;entryDy=0;endSize=4;" edge="1" parent="1" source="gmB4WwqZMORq6ps0vpDz-61" target="gmB4WwqZMORq6ps0vpDz-62">
          <mxGeometry relative="1" as="geometry" />
        </mxCell>
        <mxCell id="gmB4WwqZMORq6ps0vpDz-72" style="edgeStyle=orthogonalEdgeStyle;rounded=0;orthogonalLoop=1;jettySize=auto;html=1;exitX=0.5;exitY=1;exitDx=0;exitDy=0;entryX=0.5;entryY=0;entryDx=0;entryDy=0;endSize=4;" edge="1" parent="1" source="gmB4WwqZMORq6ps0vpDz-62" target="gmB4WwqZMORq6ps0vpDz-65">
          <mxGeometry relative="1" as="geometry" />
        </mxCell>
        <mxCell id="gmB4WwqZMORq6ps0vpDz-75" style="edgeStyle=orthogonalEdgeStyle;rounded=0;orthogonalLoop=1;jettySize=auto;html=1;exitX=0.5;exitY=1;exitDx=0;exitDy=0;entryX=0.5;entryY=0;entryDx=0;entryDy=0;endSize=4;" edge="1" parent="1" source="gmB4WwqZMORq6ps0vpDz-65" target="gmB4WwqZMORq6ps0vpDz-64">
          <mxGeometry relative="1" as="geometry" />
        </mxCell>
        <mxCell id="gmB4WwqZMORq6ps0vpDz-141" style="edgeStyle=orthogonalEdgeStyle;rounded=0;orthogonalLoop=1;jettySize=auto;html=1;exitX=1;exitY=0.5;exitDx=0;exitDy=0;entryX=0;entryY=0.5;entryDx=0;entryDy=0;" edge="1" parent="1" source="gmB4WwqZMORq6ps0vpDz-76" target="gmB4WwqZMORq6ps0vpDz-83">
          <mxGeometry relative="1" as="geometry" />
        </mxCell>
        <mxCell id="gmB4WwqZMORq6ps0vpDz-76" value="" style="rounded=1;whiteSpace=wrap;html=1;dashed=1;fillStyle=auto;fillColor=#dae8fc;strokeColor=#6c8ebf;opacity=90;" vertex="1" parent="1">
          <mxGeometry x="440" y="83" width="110" height="167" as="geometry" />
        </mxCell>
        <mxCell id="gmB4WwqZMORq6ps0vpDz-77" value="&lt;font style=&quot;font-size: 10px;&quot;&gt;CrossAttentior&lt;/font&gt;" style="text;html=1;align=center;verticalAlign=middle;whiteSpace=wrap;rounded=0;fontFamily=Garamond;" vertex="1" parent="1">
          <mxGeometry x="440" y="77.5" width="110" height="30" as="geometry" />
        </mxCell>
        <mxCell id="gmB4WwqZMORq6ps0vpDz-78" value="Query Conv" style="rounded=0;whiteSpace=wrap;html=1;fillColor=light-dark(#FFFF00,#281D00);strokeColor=#000000;shadow=1;glass=0;opacity=70;shadowOpacity=50;" vertex="1" parent="1">
          <mxGeometry x="456.25" y="113" width="77.5" height="20" as="geometry" />
        </mxCell>
        <mxCell id="gmB4WwqZMORq6ps0vpDz-79" value="Key Conv" style="rounded=0;whiteSpace=wrap;html=1;fillColor=#FF9933;strokeColor=#000000;shadow=1;opacity=70;shadowOpacity=50;" vertex="1" parent="1">
          <mxGeometry x="464" y="138" width="62" height="20" as="geometry" />
        </mxCell>
        <mxCell id="gmB4WwqZMORq6ps0vpDz-80" value="Value Conv" style="rounded=0;whiteSpace=wrap;html=1;fillColor=light-dark(#FFCCFF,#281D00);strokeColor=#000000;shadow=1;glass=0;opacity=70;shadowOpacity=50;" vertex="1" parent="1">
          <mxGeometry x="460.25" y="163" width="69.5" height="20" as="geometry" />
        </mxCell>
        <mxCell id="gmB4WwqZMORq6ps0vpDz-81" value="Attention Map" style="rounded=0;whiteSpace=wrap;html=1;fillColor=#A9C4EB;strokeColor=#000000;shadow=1;opacity=70;shadowOpacity=50;" vertex="1" parent="1">
          <mxGeometry x="448" y="188" width="94" height="20" as="geometry" />
        </mxCell>
        <mxCell id="gmB4WwqZMORq6ps0vpDz-82" value="Attention Map" style="rounded=0;whiteSpace=wrap;html=1;fillColor=light-dark(#B9E0A5,#281D00);strokeColor=#000000;shadow=1;glass=0;opacity=70;shadowOpacity=50;" vertex="1" parent="1">
          <mxGeometry x="453.25" y="213" width="83.5" height="20" as="geometry" />
        </mxCell>
        <mxCell id="gmB4WwqZMORq6ps0vpDz-83" value="" style="rounded=1;whiteSpace=wrap;html=1;dashed=1;fillStyle=auto;fillColor=#d5e8d4;strokeColor=#82b366;" vertex="1" parent="1">
          <mxGeometry x="586" y="84" width="120" height="166" as="geometry" />
        </mxCell>
        <mxCell id="gmB4WwqZMORq6ps0vpDz-84" value="&lt;font style=&quot;font-size: 10px;&quot;&gt;Classifcation Head&lt;/font&gt;" style="text;html=1;align=center;verticalAlign=middle;whiteSpace=wrap;rounded=0;fontFamily=Garamond;" vertex="1" parent="1">
          <mxGeometry x="590" y="77.5" width="110" height="30" as="geometry" />
        </mxCell>
        <mxCell id="gmB4WwqZMORq6ps0vpDz-85" value="GAP" style="rounded=0;whiteSpace=wrap;html=1;fillColor=light-dark(#D5E8D4,#281D00);strokeColor=#000000;shadow=1;glass=0;opacity=70;shadowOpacity=50;" vertex="1" parent="1">
          <mxGeometry x="613.5" y="118" width="65" height="20" as="geometry" />
        </mxCell>
        <mxCell id="gmB4WwqZMORq6ps0vpDz-86" value="&lt;pre style=&quot;font-family: var(--ds-font-family-code); overflow: auto; padding: calc(var(--ds-md-zoom)*8px)calc(var(--ds-md-zoom)*12px); text-wrap-mode: wrap; word-break: break-all; font-size: 12.573px; text-align: start; margin-top: 0px !important; margin-bottom: 0px !important;&quot;&gt;&lt;pre style=&quot;font-family: var(--ds-font-family-code); overflow: auto; padding: calc(var(--ds-md-zoom)*8px)calc(var(--ds-md-zoom)*12px); text-wrap-mode: wrap; word-break: break-all; margin-top: 0px !important; margin-bottom: 0px !important;&quot;&gt;&lt;font style=&quot;color: rgb(0, 0, 0);&quot;&gt;Linear(1792→512)&lt;/font&gt;&lt;/pre&gt;&lt;/pre&gt;" style="rounded=0;whiteSpace=wrap;html=1;fillColor=#A9C4EB;strokeColor=#000000;shadow=1;opacity=70;shadowOpacity=50;" vertex="1" parent="1">
          <mxGeometry x="590" y="143" width="112" height="20" as="geometry" />
        </mxCell>
        <mxCell id="gmB4WwqZMORq6ps0vpDz-87" value="&lt;pre style=&quot;font-family: var(--ds-font-family-code); overflow: auto; padding: calc(var(--ds-md-zoom)*8px)calc(var(--ds-md-zoom)*12px); text-wrap-mode: wrap; word-break: break-all; text-align: start; margin-top: 0px !important; margin-bottom: 0px !important;&quot;&gt;&lt;font style=&quot;color: rgb(0, 0, 0); font-size: 11px;&quot;&gt;BN+ReLU&lt;/font&gt;&lt;/pre&gt;" style="rounded=0;whiteSpace=wrap;html=1;fillColor=light-dark(#FFCCFF,#281D00);strokeColor=#000000;shadow=1;glass=0;opacity=70;shadowOpacity=50;" vertex="1" parent="1">
          <mxGeometry x="611.75" y="168" width="68.5" height="20" as="geometry" />
        </mxCell>
        <mxCell id="gmB4WwqZMORq6ps0vpDz-88" value="&lt;pre style=&quot;font-family: var(--ds-font-family-code); overflow: auto; padding: calc(var(--ds-md-zoom)*8px)calc(var(--ds-md-zoom)*12px); text-wrap-mode: wrap; word-break: break-all; font-size: 12.573px; text-align: start; margin-top: 0px !important; margin-bottom: 0px !important;&quot;&gt;&lt;font style=&quot;color: rgb(0, 0, 0);&quot;&gt;Dropout(0.3)&lt;/font&gt;&lt;/pre&gt;" style="rounded=0;whiteSpace=wrap;html=1;fillColor=#FFD966;strokeColor=#000000;shadow=1;opacity=70;shadowOpacity=50;" vertex="1" parent="1">
          <mxGeometry x="599" y="194" width="94" height="20" as="geometry" />
        </mxCell>
        <mxCell id="gmB4WwqZMORq6ps0vpDz-89" value="&lt;pre style=&quot;font-family: var(--ds-font-family-code); overflow: auto; padding: calc(var(--ds-md-zoom)*8px)calc(var(--ds-md-zoom)*12px); text-wrap-mode: wrap; word-break: break-all; font-size: 12.573px; text-align: start; margin-top: 0px !important; margin-bottom: 0px !important;&quot;&gt;&lt;font style=&quot;color: rgb(0, 0, 0);&quot;&gt;Linear(512→8)&lt;/font&gt;&lt;/pre&gt;" style="rounded=0;whiteSpace=wrap;html=1;fillColor=light-dark(#A9C4EB,#281D00);strokeColor=#000000;shadow=1;glass=0;opacity=70;shadowOpacity=50;" vertex="1" parent="1">
          <mxGeometry x="595.88" y="220" width="100.25" height="20" as="geometry" />
        </mxCell>
        <mxCell id="gmB4WwqZMORq6ps0vpDz-102" style="edgeStyle=orthogonalEdgeStyle;rounded=0;orthogonalLoop=1;jettySize=auto;html=1;exitX=0.5;exitY=1;exitDx=0;exitDy=0;entryX=0.5;entryY=0;entryDx=0;entryDy=0;endSize=4;" edge="1" parent="1" source="gmB4WwqZMORq6ps0vpDz-81" target="gmB4WwqZMORq6ps0vpDz-82">
          <mxGeometry relative="1" as="geometry" />
        </mxCell>
        <mxCell id="gmB4WwqZMORq6ps0vpDz-96" style="edgeStyle=orthogonalEdgeStyle;rounded=0;orthogonalLoop=1;jettySize=auto;html=1;exitX=0.5;exitY=1;exitDx=0;exitDy=0;entryX=0.5;entryY=0;entryDx=0;entryDy=0;endSize=4;" edge="1" parent="1" source="gmB4WwqZMORq6ps0vpDz-80" target="gmB4WwqZMORq6ps0vpDz-81">
          <mxGeometry relative="1" as="geometry" />
        </mxCell>
        <mxCell id="gmB4WwqZMORq6ps0vpDz-98" style="edgeStyle=orthogonalEdgeStyle;rounded=0;orthogonalLoop=1;jettySize=auto;html=1;exitX=0.5;exitY=1;exitDx=0;exitDy=0;entryX=0.5;entryY=0;entryDx=0;entryDy=0;endSize=4;" edge="1" parent="1" source="gmB4WwqZMORq6ps0vpDz-79" target="gmB4WwqZMORq6ps0vpDz-80">
          <mxGeometry relative="1" as="geometry" />
        </mxCell>
        <mxCell id="gmB4WwqZMORq6ps0vpDz-94" style="edgeStyle=orthogonalEdgeStyle;rounded=0;orthogonalLoop=1;jettySize=auto;html=1;exitX=0.5;exitY=1;exitDx=0;exitDy=0;entryX=0.5;entryY=0;entryDx=0;entryDy=0;endSize=4;" edge="1" parent="1" source="gmB4WwqZMORq6ps0vpDz-78" target="gmB4WwqZMORq6ps0vpDz-79">
          <mxGeometry relative="1" as="geometry" />
        </mxCell>
        <mxCell id="gmB4WwqZMORq6ps0vpDz-103" style="edgeStyle=orthogonalEdgeStyle;rounded=0;orthogonalLoop=1;jettySize=auto;html=1;exitX=0.5;exitY=1;exitDx=0;exitDy=0;entryX=0.5;entryY=0;entryDx=0;entryDy=0;endSize=4;" edge="1" parent="1" source="gmB4WwqZMORq6ps0vpDz-85" target="gmB4WwqZMORq6ps0vpDz-86">
          <mxGeometry relative="1" as="geometry" />
        </mxCell>
        <mxCell id="gmB4WwqZMORq6ps0vpDz-104" style="edgeStyle=orthogonalEdgeStyle;rounded=0;orthogonalLoop=1;jettySize=auto;html=1;exitX=0.5;exitY=1;exitDx=0;exitDy=0;entryX=0.5;entryY=0;entryDx=0;entryDy=0;endSize=4;" edge="1" parent="1" source="gmB4WwqZMORq6ps0vpDz-86" target="gmB4WwqZMORq6ps0vpDz-87">
          <mxGeometry relative="1" as="geometry" />
        </mxCell>
        <mxCell id="gmB4WwqZMORq6ps0vpDz-105" style="edgeStyle=orthogonalEdgeStyle;rounded=0;orthogonalLoop=1;jettySize=auto;html=1;exitX=0.5;exitY=1;exitDx=0;exitDy=0;entryX=0.5;entryY=0;entryDx=0;entryDy=0;endSize=4;" edge="1" parent="1" source="gmB4WwqZMORq6ps0vpDz-87" target="gmB4WwqZMORq6ps0vpDz-88">
          <mxGeometry relative="1" as="geometry" />
        </mxCell>
        <mxCell id="gmB4WwqZMORq6ps0vpDz-106" style="edgeStyle=orthogonalEdgeStyle;rounded=0;orthogonalLoop=1;jettySize=auto;html=1;exitX=0.5;exitY=1;exitDx=0;exitDy=0;entryX=0.5;entryY=0;entryDx=0;entryDy=0;endSize=4;" edge="1" parent="1" source="gmB4WwqZMORq6ps0vpDz-88" target="gmB4WwqZMORq6ps0vpDz-89">
          <mxGeometry relative="1" as="geometry" />
        </mxCell>
        <mxCell id="gmB4WwqZMORq6ps0vpDz-110" style="rounded=0;orthogonalLoop=1;jettySize=auto;html=1;exitX=1;exitY=0.5;exitDx=0;exitDy=0;entryX=-0.016;entryY=0.668;entryDx=0;entryDy=0;entryPerimeter=0;" edge="1" parent="1" source="gmB4WwqZMORq6ps0vpDz-49" target="gmB4WwqZMORq6ps0vpDz-58">
          <mxGeometry relative="1" as="geometry" />
        </mxCell>
        <mxCell id="gmB4WwqZMORq6ps0vpDz-114" value="" style="ellipse;whiteSpace=wrap;html=1;aspect=fixed;fillColor=#f8cecc;strokeColor=#b85450;" vertex="1" parent="1">
          <mxGeometry x="743" y="83" width="19" height="19" as="geometry" />
        </mxCell>
        <mxCell id="gmB4WwqZMORq6ps0vpDz-115" value="" style="ellipse;whiteSpace=wrap;html=1;aspect=fixed;fillColor=#ffe6cc;strokeColor=#d79b00;" vertex="1" parent="1">
          <mxGeometry x="743" y="102.5" width="19" height="19" as="geometry" />
        </mxCell>
        <mxCell id="gmB4WwqZMORq6ps0vpDz-116" value="" style="ellipse;whiteSpace=wrap;html=1;aspect=fixed;fillColor=#fff2cc;strokeColor=#d6b656;" vertex="1" parent="1">
          <mxGeometry x="743" y="122" width="19" height="19" as="geometry" />
        </mxCell>
        <mxCell id="gmB4WwqZMORq6ps0vpDz-118" value="" style="ellipse;whiteSpace=wrap;html=1;aspect=fixed;fillColor=#dae8fc;strokeColor=#007FFF;" vertex="1" parent="1">
          <mxGeometry x="743" y="180.5" width="19" height="19" as="geometry" />
        </mxCell>
        <mxCell id="gmB4WwqZMORq6ps0vpDz-119" value="" style="ellipse;whiteSpace=wrap;html=1;aspect=fixed;fillColor=#d5e8d4;strokeColor=#82b366;" vertex="1" parent="1">
          <mxGeometry x="743" y="141.5" width="19" height="19" as="geometry" />
        </mxCell>
        <mxCell id="gmB4WwqZMORq6ps0vpDz-120" value="" style="ellipse;whiteSpace=wrap;html=1;aspect=fixed;fillColor=#dae8fc;strokeColor=#6c8ebf;" vertex="1" parent="1">
          <mxGeometry x="743" y="161" width="19" height="19" as="geometry" />
        </mxCell>
        <mxCell id="gmB4WwqZMORq6ps0vpDz-121" value="" style="ellipse;whiteSpace=wrap;html=1;aspect=fixed;fillColor=#e1d5e7;strokeColor=#9673a6;" vertex="1" parent="1">
          <mxGeometry x="743" y="200.5" width="19" height="19" as="geometry" />
        </mxCell>
        <mxCell id="gmB4WwqZMORq6ps0vpDz-122" value="" style="ellipse;whiteSpace=wrap;html=1;aspect=fixed;fillColor=#f5f5f5;fontColor=#333333;strokeColor=#666666;" vertex="1" parent="1">
          <mxGeometry x="743" y="220" width="19" height="19" as="geometry" />
        </mxCell>
        <mxCell id="gmB4WwqZMORq6ps0vpDz-126" value="DualEyeNet" style="text;strokeColor=none;fillColor=none;html=1;fontSize=24;fontStyle=0;verticalAlign=middle;align=center;" vertex="1" parent="1">
          <mxGeometry x="275" y="-30" width="223.75" height="40" as="geometry" />
        </mxCell>
        <mxCell id="gmB4WwqZMORq6ps0vpDz-130" style="edgeStyle=orthogonalEdgeStyle;rounded=0;orthogonalLoop=1;jettySize=auto;html=1;exitX=1;exitY=0.5;exitDx=0;exitDy=0;entryX=0.014;entryY=0.341;entryDx=0;entryDy=0;entryPerimeter=0;" edge="1" parent="1" source="gmB4WwqZMORq6ps0vpDz-83" target="gmB4WwqZMORq6ps0vpDz-120">
          <mxGeometry relative="1" as="geometry" />
        </mxCell>
        <mxCell id="gmB4WwqZMORq6ps0vpDz-131" value="&lt;font style=&quot;font-size: 10px;&quot;&gt;MultiLabel&lt;/font&gt;&lt;div&gt;&lt;font style=&quot;font-size: 10px;&quot;&gt;Prediction&lt;/font&gt;&lt;/div&gt;" style="text;html=1;align=center;verticalAlign=middle;whiteSpace=wrap;rounded=0;fontFamily=Garamond;" vertex="1" parent="1">
          <mxGeometry x="697.5" y="30" width="110" height="30" as="geometry" />
        </mxCell>
        <mxCell id="gmB4WwqZMORq6ps0vpDz-132" value="&lt;span style=&quot;font-size: 7px; font-weight: 400;&quot;&gt;（8）&lt;/span&gt;" style="text;strokeColor=none;fillColor=none;html=1;fontSize=24;fontStyle=1;verticalAlign=middle;align=center;fontFamily=Times New Roman;" vertex="1" parent="1">
          <mxGeometry x="697.5" y="143" width="55" height="20" as="geometry" />
        </mxCell>
        <mxCell id="gmB4WwqZMORq6ps0vpDz-134" value="&lt;font style=&quot;font-weight: normal; font-size: 7px;&quot;&gt;（H×W×1792）&lt;/font&gt;" style="text;strokeColor=none;fillColor=none;html=1;fontSize=24;fontStyle=1;verticalAlign=middle;align=center;fontFamily=Times New Roman;" vertex="1" parent="1">
          <mxGeometry x="392" y="141.5" width="55" height="20" as="geometry" />
        </mxCell>
        <mxCell id="gmB4WwqZMORq6ps0vpDz-135" value="&lt;font style=&quot;font-weight: normal; font-size: 7px;&quot;&gt;（H×W×1792）&lt;/font&gt;" style="text;strokeColor=none;fillColor=none;html=1;fontSize=24;fontStyle=1;verticalAlign=middle;align=center;fontFamily=Times New Roman;" vertex="1" parent="1">
          <mxGeometry x="540.88" y="143" width="55" height="20" as="geometry" />
        </mxCell>
        <mxCell id="gmB4WwqZMORq6ps0vpDz-136" value="&lt;span style=&quot;color: rgba(0, 0, 0, 0.95); text-align: start;&quot;&gt;&lt;font style=&quot;font-size: 10px;&quot;&gt;特征融合模块&lt;/font&gt;&lt;/span&gt;" style="text;html=1;align=center;verticalAlign=middle;whiteSpace=wrap;rounded=0;fontFamily=Helvetica;" vertex="1" parent="1">
          <mxGeometry x="375" y="44" width="110" height="30" as="geometry" />
        </mxCell>
        <mxCell id="gmB4WwqZMORq6ps0vpDz-138" value="&lt;span style=&quot;color: rgba(0, 0, 0, 0.95); text-align: start;&quot;&gt;&lt;font style=&quot;font-size: 10px;&quot;&gt;主干网络&lt;/font&gt;&lt;/span&gt;" style="text;html=1;align=center;verticalAlign=middle;whiteSpace=wrap;rounded=0;fontFamily=Helvetica;" vertex="1" parent="1">
          <mxGeometry x="125" y="44" width="110" height="30" as="geometry" />
        </mxCell>
        <mxCell id="gmB4WwqZMORq6ps0vpDz-139" value="&lt;span style=&quot;color: rgba(0, 0, 0, 0.95); text-align: start;&quot;&gt;&lt;font style=&quot;font-size: 10px;&quot;&gt;多标签预测&lt;/font&gt;&lt;/span&gt;" style="text;html=1;align=center;verticalAlign=middle;whiteSpace=wrap;rounded=0;fontFamily=Helvetica;" vertex="1" parent="1">
          <mxGeometry x="697.5" y="50" width="110" height="30" as="geometry" />
        </mxCell>
      </root>
    </mxGraphModel>
  </diagram>
</mxfile>
